<svg width="22" height="22" viewBox="0 0 22 22" fill="none" xmlns="http://www.w3.org/2000/svg">
<g id="brand / facebook">
<path id="coolicon" d="M1.83594 11.0018C1.837 15.5113 5.11614 19.3509 9.56985 20.0576V13.651H7.24427V11.0018H9.5726V8.98517C9.46852 8.02958 9.79492 7.07721 10.4633 6.38635C11.1316 5.6955 12.0727 5.33776 13.0312 5.41017C13.7192 5.42128 14.4054 5.48255 15.0845 5.5935V7.84758H13.9259C13.527 7.79534 13.1259 7.92708 12.8357 8.20569C12.5455 8.48431 12.3976 8.87964 12.4335 9.28033V11.0018H14.9736L14.5675 13.6519H12.4335V20.0576C17.2501 19.2964 20.6277 14.8975 20.1193 10.0477C19.611 5.19784 15.3946 1.59493 10.5249 1.84908C5.6551 2.10323 1.83671 6.12545 1.83594 11.0018Z" fill="#969696"/>
</g>
</svg>
