<svg width="22" height="22" viewBox="0 0 22 22" fill="none" xmlns="http://www.w3.org/2000/svg">
<g id="brand / instagram">
<path id="coolicon" d="M11.002 19.2876C8.74695 19.2876 8.48112 19.2757 7.60112 19.2372C6.91488 19.2147 6.23752 19.0752 5.5982 18.8247C4.49207 18.3943 3.61742 17.5193 3.18737 16.413C2.94657 15.7713 2.81669 15.0934 2.80329 14.4082C2.75195 13.5301 2.75195 13.2422 2.75195 11.0046C2.75195 8.74322 2.76387 8.47922 2.80329 7.60381C2.81698 6.91953 2.94686 6.24256 3.18737 5.60181C3.61695 4.49404 4.49303 3.6183 5.60095 3.18914C6.24138 2.94732 6.91852 2.8171 7.60295 2.80414C8.47837 2.75464 8.7662 2.75464 11.002 2.75464C13.2753 2.75464 13.5365 2.76656 14.4028 2.80414C15.089 2.81722 15.7679 2.94742 16.4103 3.18914C17.5179 3.61878 18.3938 4.49436 18.8239 5.60181C19.0687 6.2519 19.1993 6.93945 19.2098 7.63406C19.2611 8.51222 19.2611 8.79914 19.2611 11.0358C19.2611 13.2725 19.2483 13.5658 19.2098 14.4339C19.1961 15.1197 19.066 15.7983 18.8248 16.4405C18.3936 17.5475 17.5177 18.4228 16.4103 18.8531C15.7688 19.0935 15.0913 19.2233 14.4065 19.2372C13.531 19.2876 13.2441 19.2876 11.002 19.2876ZM10.9708 4.20572C8.72862 4.20572 8.49579 4.21672 7.62037 4.25614C7.09786 4.26306 6.58039 4.35948 6.09045 4.54122C5.36698 4.81806 4.79449 5.38821 4.5147 6.11056C4.33157 6.60583 4.23513 7.12895 4.22962 7.65697C4.18104 8.54522 4.18104 8.77806 4.18104 11.0046C4.18104 13.2046 4.18929 13.4714 4.22962 14.3541C4.23783 14.8768 4.33421 15.3944 4.5147 15.885C4.79491 16.6068 5.36729 17.1766 6.09045 17.4534C6.58006 17.6363 7.09773 17.7328 7.62037 17.7385C8.5077 17.7898 8.74145 17.7898 10.9708 17.7898C13.2194 17.7898 13.4522 17.7788 14.3203 17.7385C14.8432 17.7321 15.361 17.6357 15.8511 17.4534C16.5702 17.1742 17.139 16.6057 17.4186 15.8868C17.6014 15.3911 17.6978 14.8678 17.7037 14.3395H17.7138C17.7532 13.4631 17.7532 13.2294 17.7532 10.99C17.7532 8.75056 17.7431 8.51497 17.7037 7.63956C17.6955 7.11747 17.5991 6.60052 17.4186 6.11056C17.1396 5.39058 16.5708 4.82107 15.8511 4.54122C15.3611 4.35857 14.8432 4.26212 14.3203 4.25614C13.4339 4.20572 13.202 4.20572 10.9708 4.20572ZM11.002 15.2387C9.28778 15.2398 7.74175 14.2081 7.08491 12.6248C6.42807 11.0415 6.78978 9.21836 8.00137 8.00573C9.21295 6.7931 11.0357 6.4298 12.6196 7.08528C14.2036 7.74075 15.2366 9.28588 15.237 11.0001C15.2344 13.3385 13.3404 15.2342 11.002 15.2387ZM11.002 8.24822C9.48317 8.24822 8.25195 9.47944 8.25195 10.9982C8.25195 12.517 9.48317 13.7482 11.002 13.7482C12.5207 13.7482 13.752 12.517 13.752 10.9982C13.7484 9.4809 12.5193 8.25175 11.002 8.24822ZM15.402 7.59464C14.8569 7.59262 14.4164 7.14968 14.4175 6.60465C14.4185 6.05961 14.8606 5.61831 15.4056 5.61831C15.9507 5.61831 16.3928 6.05961 16.3938 6.60464C16.394 6.8676 16.2896 7.11983 16.1034 7.30559C15.9173 7.49136 15.6649 7.59537 15.402 7.59464Z" fill="#969696"/>
</g>
</svg>
