<svg width="22" height="22" viewBox="0 0 22 22" fill="none" xmlns="http://www.w3.org/2000/svg">
<g id="brand / twitter">
<path id="coolicon" d="M18.3283 6.13062C19.15 5.63936 19.7649 4.86583 20.058 3.95445C19.2859 4.4126 18.4411 4.73534 17.5601 4.9087C16.3387 3.61668 14.4036 3.30226 12.836 4.14113C11.2684 4.98 10.4564 6.76448 10.8538 8.49745C7.69092 8.33866 4.74416 6.84462 2.74678 4.38712C1.70438 6.18508 2.23707 8.4835 3.96411 9.63962C3.33959 9.61954 2.72893 9.45045 2.18303 9.14645C2.18303 9.16295 2.18303 9.17945 2.18303 9.19595C2.18339 11.0688 3.50337 12.6821 5.33911 13.0533C4.75983 13.2109 4.15222 13.2341 3.56261 13.1211C4.07888 14.7228 5.55503 15.82 7.23753 15.8528C5.84404 16.9465 4.12313 17.5396 2.35169 17.5367C2.03771 17.5372 1.72397 17.5191 1.41211 17.4826C3.21097 18.6386 5.30461 19.2521 7.44286 19.2499C10.4177 19.2704 13.2766 18.0976 15.38 15.994C17.4835 13.8903 18.656 11.0313 18.6354 8.05653C18.6354 7.88603 18.6314 7.71645 18.6234 7.54778C19.3939 6.991 20.0588 6.30125 20.5869 5.51095C19.8692 5.82909 19.1079 6.03796 18.3283 6.13062Z" fill="#969696"/>
</g>
</svg>
