<svg width="12" height="13" viewBox="0 0 12 13" fill="none" xmlns="http://www.w3.org/2000/svg">
<path d="M10.9766 6.17822C10.8125 6.34229 10.5938 6.42432 10.375 6.42432C10.1289 6.42432 9.91016 6.34229 9.74609 6.17822L6.875 3.30713V11.6743C6.875 12.1665 6.46484 12.5493 6 12.5493C5.5625 12.5493 5.125 12.1665 5.125 11.6743V3.30713L2.22656 6.17822C1.89844 6.53369 1.32422 6.53369 0.996094 6.17822C0.640625 5.8501 0.640625 5.27588 0.996094 4.94775L5.37109 0.572754C5.69922 0.217285 6.27344 0.217285 6.60156 0.572754L10.9766 4.94775C11.332 5.27588 11.332 5.8501 10.9766 6.17822Z" fill="#001128"/>
</svg>
