<svg width="130" height="24" viewBox="0 0 130 24" fill="none" xmlns="http://www.w3.org/2000/svg">
<g id="Group 106">
<g id="Techgene">
<mask id="path-1-inside-1_148_933" fill="white">
<path d="M5.69492 18.8644V4.42373H0V1.0678H15.5085V4.42373H9.81357V18.8644H5.69492Z"/>
<path d="M22.8426 19.0678C21.2833 19.0678 19.9104 18.7627 18.724 18.1525C17.5545 17.5424 16.6477 16.7119 16.0037 15.661C15.3596 14.5932 15.0376 13.3814 15.0376 12.0254C15.0376 10.6525 15.3511 9.44068 15.9782 8.38983C16.6223 7.32203 17.4952 6.49153 18.5969 5.8983C19.6986 5.28814 20.9443 4.98305 22.3342 4.98305C23.6732 4.98305 24.8766 5.27119 25.9443 5.84746C27.0291 6.40678 27.885 7.22034 28.5121 8.28814C29.1393 9.33898 29.4528 10.6017 29.4528 12.0763C29.4528 12.2288 29.4444 12.4068 29.4274 12.6102C29.4105 12.7966 29.3935 12.9746 29.3766 13.1441H18.2664V10.8305H27.2918L25.7664 11.5169C25.7664 10.8051 25.6223 10.1864 25.3342 9.66102C25.046 9.13559 24.6477 8.72881 24.1393 8.44068C23.6308 8.13559 23.0376 7.98305 22.3596 7.98305C21.6816 7.98305 21.0799 8.13559 20.5545 8.44068C20.046 8.72881 19.6477 9.14407 19.3596 9.68644C19.0715 10.2119 18.9274 10.839 18.9274 11.5678V12.178C18.9274 12.9237 19.0884 13.5847 19.4104 14.161C19.7494 14.7203 20.2155 15.1525 20.8088 15.4576C21.4189 15.7458 22.1308 15.8898 22.9443 15.8898C23.6732 15.8898 24.3088 15.7797 24.8511 15.5593C25.4104 15.339 25.9189 15.0085 26.3766 14.5678L28.4867 16.8559C27.8596 17.5678 27.0715 18.1186 26.1223 18.5085C25.1732 18.8814 24.0799 19.0678 22.8426 19.0678Z"/>
<path d="M38.7035 19.0678C37.2289 19.0678 35.9154 18.7712 34.7628 18.178C33.6103 17.5678 32.7035 16.7288 32.0425 15.661C31.3984 14.5932 31.0764 13.3814 31.0764 12.0254C31.0764 10.6525 31.3984 9.44068 32.0425 8.38983C32.7035 7.32203 33.6103 6.49153 34.7628 5.8983C35.9154 5.28814 37.2289 4.98305 38.7035 4.98305C40.1442 4.98305 41.3984 5.28814 42.4662 5.8983C43.534 6.49153 44.3222 7.34746 44.8306 8.4661L41.7544 10.1186C41.3984 9.47458 40.9493 9 40.4069 8.69492C39.8815 8.38983 39.3052 8.23729 38.6781 8.23729C38.0001 8.23729 37.3899 8.38983 36.8476 8.69492C36.3052 9 35.873 9.4322 35.551 9.99153C35.2459 10.5508 35.0933 11.2288 35.0933 12.0254C35.0933 12.822 35.2459 13.5 35.551 14.0593C35.873 14.6186 36.3052 15.0508 36.8476 15.3559C37.3899 15.661 38.0001 15.8136 38.6781 15.8136C39.3052 15.8136 39.8815 15.6695 40.4069 15.3814C40.9493 15.0763 41.3984 14.5932 41.7544 13.9322L44.8306 15.6102C44.3222 16.7119 43.534 17.5678 42.4662 18.178C41.3984 18.7712 40.1442 19.0678 38.7035 19.0678Z"/>
<path d="M55.3285 4.98305C56.4132 4.98305 57.3793 5.20339 58.2268 5.64407C59.0912 6.0678 59.7691 6.72881 60.2607 7.62712C60.7522 8.50847 60.998 9.64407 60.998 11.0339V18.8644H57.0318V11.6441C57.0318 10.5424 56.7861 9.72881 56.2946 9.20339C55.82 8.67797 55.142 8.41525 54.2607 8.41525C53.6335 8.41525 53.0657 8.55085 52.5573 8.82203C52.0657 9.07627 51.6759 9.47458 51.3878 10.0169C51.1166 10.5593 50.981 11.2542 50.981 12.1017V18.8644H47.0149V0H50.981V8.97458L50.0912 7.83051C50.5827 6.91525 51.2861 6.21186 52.2013 5.72034C53.1166 5.22881 54.159 4.98305 55.3285 4.98305Z"/>
<path d="M71.1245 24C69.8364 24 68.5907 23.839 67.3873 23.5169C66.2008 23.2119 65.2093 22.7458 64.4127 22.1186L65.989 19.2712C66.5652 19.7458 67.294 20.1186 68.1754 20.3898C69.0737 20.678 69.9551 20.822 70.8195 20.822C72.2262 20.822 73.2432 20.5085 73.8703 19.8814C74.5144 19.2542 74.8364 18.322 74.8364 17.0847V15.0254L75.0907 11.5932L75.0398 8.13559V5.18644H78.8025V16.5763C78.8025 19.1186 78.1415 20.9915 76.8195 22.1949C75.4974 23.3983 73.5991 24 71.1245 24ZM70.5144 18.2034C69.2432 18.2034 68.0907 17.9322 67.0567 17.3898C66.0398 16.8305 65.2178 16.0593 64.5906 15.0763C63.9805 14.0763 63.6754 12.9153 63.6754 11.5932C63.6754 10.2542 63.9805 9.09322 64.5906 8.11017C65.2178 7.11017 66.0398 6.33898 67.0567 5.79661C68.0907 5.25424 69.2432 4.98305 70.5144 4.98305C71.6669 4.98305 72.6839 5.22034 73.5652 5.69492C74.4466 6.15254 75.133 6.87288 75.6246 7.85593C76.1161 8.82203 76.3618 10.0678 76.3618 11.5932C76.3618 13.1017 76.1161 14.3475 75.6246 15.3305C75.133 16.2966 74.4466 17.0169 73.5652 17.4915C72.6839 17.9661 71.6669 18.2034 70.5144 18.2034ZM71.3025 14.9492C71.9974 14.9492 72.6161 14.8136 73.1585 14.5424C73.7008 14.2542 74.1245 13.8559 74.4296 13.3475C74.7347 12.839 74.8873 12.2542 74.8873 11.5932C74.8873 10.9153 74.7347 10.3305 74.4296 9.83898C74.1245 9.33051 73.7008 8.94068 73.1585 8.66949C72.6161 8.38136 71.9974 8.23729 71.3025 8.23729C70.6076 8.23729 69.989 8.38136 69.4466 8.66949C68.9042 8.94068 68.472 9.33051 68.15 9.83898C67.8449 10.3305 67.6923 10.9153 67.6923 11.5932C67.6923 12.2542 67.8449 12.839 68.15 13.3475C68.472 13.8559 68.9042 14.2542 69.4466 14.5424C69.989 14.8136 70.6076 14.9492 71.3025 14.9492Z"/>
<path d="M89.2821 19.0678C87.7228 19.0678 86.3499 18.7627 85.1634 18.1525C83.9939 17.5424 83.0872 16.7119 82.4431 15.661C81.799 14.5932 81.477 13.3814 81.477 12.0254C81.477 10.6525 81.7906 9.44068 82.4177 8.38983C83.0617 7.32203 83.9346 6.49153 85.0363 5.8983C86.138 5.28814 87.3838 4.98305 88.7736 4.98305C90.1126 4.98305 91.316 5.27119 92.3838 5.84746C93.4685 6.40678 94.3245 7.22034 94.9516 8.28814C95.5787 9.33898 95.8923 10.6017 95.8923 12.0763C95.8923 12.2288 95.8838 12.4068 95.8668 12.6102C95.8499 12.7966 95.8329 12.9746 95.816 13.1441H84.7058V10.8305H93.7312L92.2058 11.5169C92.2058 10.8051 92.0617 10.1864 91.7736 9.66102C91.4855 9.13559 91.0872 8.72881 90.5787 8.44068C90.0702 8.13559 89.477 7.98305 88.799 7.98305C88.1211 7.98305 87.5194 8.13559 86.9939 8.44068C86.4855 8.72881 86.0872 9.14407 85.799 9.68644C85.5109 10.2119 85.3668 10.839 85.3668 11.5678V12.178C85.3668 12.9237 85.5278 13.5847 85.8499 14.161C86.1889 14.7203 86.655 15.1525 87.2482 15.4576C87.8584 15.7458 88.5702 15.8898 89.3838 15.8898C90.1126 15.8898 90.7482 15.7797 91.2906 15.5593C91.8499 15.339 92.3584 15.0085 92.816 14.5678L94.9262 16.8559C94.299 17.5678 93.5109 18.1186 92.5617 18.5085C91.6126 18.8814 90.5194 19.0678 89.2821 19.0678Z"/>
<path d="M106.846 4.98305C107.931 4.98305 108.897 5.20339 109.745 5.64407C110.609 6.0678 111.287 6.72881 111.779 7.62712C112.27 8.50847 112.516 9.64407 112.516 11.0339V18.8644H108.55V11.6441C108.55 10.5424 108.304 9.72881 107.812 9.20339C107.338 8.67797 106.66 8.41525 105.779 8.41525C105.151 8.41525 104.584 8.55085 104.075 8.82203C103.584 9.07627 103.194 9.47458 102.906 10.0169C102.634 10.5593 102.499 11.2542 102.499 12.1017V18.8644H98.5328V5.18644H102.321V8.97458L101.609 7.83051C102.101 6.91525 102.804 6.21186 103.719 5.72034C104.634 5.22881 105.677 4.98305 106.846 4.98305Z"/>
<path d="M122.998 19.0678C121.439 19.0678 120.066 18.7627 118.88 18.1525C117.71 17.5424 116.803 16.7119 116.159 15.661C115.515 14.5932 115.193 13.3814 115.193 12.0254C115.193 10.6525 115.507 9.44068 116.134 8.38983C116.778 7.32203 117.651 6.49153 118.753 5.8983C119.854 5.28814 121.1 4.98305 122.49 4.98305C123.829 4.98305 125.032 5.27119 126.1 5.84746C127.185 6.40678 128.041 7.22034 128.668 8.28814C129.295 9.33898 129.609 10.6017 129.609 12.0763C129.609 12.2288 129.6 12.4068 129.583 12.6102C129.566 12.7966 129.549 12.9746 129.532 13.1441H118.422V10.8305H127.448L125.922 11.5169C125.922 10.8051 125.778 10.1864 125.49 9.66102C125.202 9.13559 124.803 8.72881 124.295 8.44068C123.786 8.13559 123.193 7.98305 122.515 7.98305C121.837 7.98305 121.236 8.13559 120.71 8.44068C120.202 8.72881 119.803 9.14407 119.515 9.68644C119.227 10.2119 119.083 10.839 119.083 11.5678V12.178C119.083 12.9237 119.244 13.5847 119.566 14.161C119.905 14.7203 120.371 15.1525 120.964 15.4576C121.575 15.7458 122.286 15.8898 123.1 15.8898C123.829 15.8898 124.464 15.7797 125.007 15.5593C125.566 15.339 126.075 15.0085 126.532 14.5678L128.642 16.8559C128.015 17.5678 127.227 18.1186 126.278 18.5085C125.329 18.8814 124.236 19.0678 122.998 19.0678Z"/>
</mask>
<path d="M5.69492 18.8644V4.42373H0V1.0678H15.5085V4.42373H9.81357V18.8644H5.69492Z" fill="white"/>
<path d="M22.8426 19.0678C21.2833 19.0678 19.9104 18.7627 18.724 18.1525C17.5545 17.5424 16.6477 16.7119 16.0037 15.661C15.3596 14.5932 15.0376 13.3814 15.0376 12.0254C15.0376 10.6525 15.3511 9.44068 15.9782 8.38983C16.6223 7.32203 17.4952 6.49153 18.5969 5.8983C19.6986 5.28814 20.9443 4.98305 22.3342 4.98305C23.6732 4.98305 24.8766 5.27119 25.9443 5.84746C27.0291 6.40678 27.885 7.22034 28.5121 8.28814C29.1393 9.33898 29.4528 10.6017 29.4528 12.0763C29.4528 12.2288 29.4444 12.4068 29.4274 12.6102C29.4105 12.7966 29.3935 12.9746 29.3766 13.1441H18.2664V10.8305H27.2918L25.7664 11.5169C25.7664 10.8051 25.6223 10.1864 25.3342 9.66102C25.046 9.13559 24.6477 8.72881 24.1393 8.44068C23.6308 8.13559 23.0376 7.98305 22.3596 7.98305C21.6816 7.98305 21.0799 8.13559 20.5545 8.44068C20.046 8.72881 19.6477 9.14407 19.3596 9.68644C19.0715 10.2119 18.9274 10.839 18.9274 11.5678V12.178C18.9274 12.9237 19.0884 13.5847 19.4104 14.161C19.7494 14.7203 20.2155 15.1525 20.8088 15.4576C21.4189 15.7458 22.1308 15.8898 22.9443 15.8898C23.6732 15.8898 24.3088 15.7797 24.8511 15.5593C25.4104 15.339 25.9189 15.0085 26.3766 14.5678L28.4867 16.8559C27.8596 17.5678 27.0715 18.1186 26.1223 18.5085C25.1732 18.8814 24.0799 19.0678 22.8426 19.0678Z" fill="white"/>
<path d="M38.7035 19.0678C37.2289 19.0678 35.9154 18.7712 34.7628 18.178C33.6103 17.5678 32.7035 16.7288 32.0425 15.661C31.3984 14.5932 31.0764 13.3814 31.0764 12.0254C31.0764 10.6525 31.3984 9.44068 32.0425 8.38983C32.7035 7.32203 33.6103 6.49153 34.7628 5.8983C35.9154 5.28814 37.2289 4.98305 38.7035 4.98305C40.1442 4.98305 41.3984 5.28814 42.4662 5.8983C43.534 6.49153 44.3222 7.34746 44.8306 8.4661L41.7544 10.1186C41.3984 9.47458 40.9493 9 40.4069 8.69492C39.8815 8.38983 39.3052 8.23729 38.6781 8.23729C38.0001 8.23729 37.3899 8.38983 36.8476 8.69492C36.3052 9 35.873 9.4322 35.551 9.99153C35.2459 10.5508 35.0933 11.2288 35.0933 12.0254C35.0933 12.822 35.2459 13.5 35.551 14.0593C35.873 14.6186 36.3052 15.0508 36.8476 15.3559C37.3899 15.661 38.0001 15.8136 38.6781 15.8136C39.3052 15.8136 39.8815 15.6695 40.4069 15.3814C40.9493 15.0763 41.3984 14.5932 41.7544 13.9322L44.8306 15.6102C44.3222 16.7119 43.534 17.5678 42.4662 18.178C41.3984 18.7712 40.1442 19.0678 38.7035 19.0678Z" fill="white"/>
<path d="M55.3285 4.98305C56.4132 4.98305 57.3793 5.20339 58.2268 5.64407C59.0912 6.0678 59.7691 6.72881 60.2607 7.62712C60.7522 8.50847 60.998 9.64407 60.998 11.0339V18.8644H57.0318V11.6441C57.0318 10.5424 56.7861 9.72881 56.2946 9.20339C55.82 8.67797 55.142 8.41525 54.2607 8.41525C53.6335 8.41525 53.0657 8.55085 52.5573 8.82203C52.0657 9.07627 51.6759 9.47458 51.3878 10.0169C51.1166 10.5593 50.981 11.2542 50.981 12.1017V18.8644H47.0149V0H50.981V8.97458L50.0912 7.83051C50.5827 6.91525 51.2861 6.21186 52.2013 5.72034C53.1166 5.22881 54.159 4.98305 55.3285 4.98305Z" fill="white"/>
<path d="M71.1245 24C69.8364 24 68.5907 23.839 67.3873 23.5169C66.2008 23.2119 65.2093 22.7458 64.4127 22.1186L65.989 19.2712C66.5652 19.7458 67.294 20.1186 68.1754 20.3898C69.0737 20.678 69.9551 20.822 70.8195 20.822C72.2262 20.822 73.2432 20.5085 73.8703 19.8814C74.5144 19.2542 74.8364 18.322 74.8364 17.0847V15.0254L75.0907 11.5932L75.0398 8.13559V5.18644H78.8025V16.5763C78.8025 19.1186 78.1415 20.9915 76.8195 22.1949C75.4974 23.3983 73.5991 24 71.1245 24ZM70.5144 18.2034C69.2432 18.2034 68.0907 17.9322 67.0567 17.3898C66.0398 16.8305 65.2178 16.0593 64.5906 15.0763C63.9805 14.0763 63.6754 12.9153 63.6754 11.5932C63.6754 10.2542 63.9805 9.09322 64.5906 8.11017C65.2178 7.11017 66.0398 6.33898 67.0567 5.79661C68.0907 5.25424 69.2432 4.98305 70.5144 4.98305C71.6669 4.98305 72.6839 5.22034 73.5652 5.69492C74.4466 6.15254 75.133 6.87288 75.6246 7.85593C76.1161 8.82203 76.3618 10.0678 76.3618 11.5932C76.3618 13.1017 76.1161 14.3475 75.6246 15.3305C75.133 16.2966 74.4466 17.0169 73.5652 17.4915C72.6839 17.9661 71.6669 18.2034 70.5144 18.2034ZM71.3025 14.9492C71.9974 14.9492 72.6161 14.8136 73.1585 14.5424C73.7008 14.2542 74.1245 13.8559 74.4296 13.3475C74.7347 12.839 74.8873 12.2542 74.8873 11.5932C74.8873 10.9153 74.7347 10.3305 74.4296 9.83898C74.1245 9.33051 73.7008 8.94068 73.1585 8.66949C72.6161 8.38136 71.9974 8.23729 71.3025 8.23729C70.6076 8.23729 69.989 8.38136 69.4466 8.66949C68.9042 8.94068 68.472 9.33051 68.15 9.83898C67.8449 10.3305 67.6923 10.9153 67.6923 11.5932C67.6923 12.2542 67.8449 12.839 68.15 13.3475C68.472 13.8559 68.9042 14.2542 69.4466 14.5424C69.989 14.8136 70.6076 14.9492 71.3025 14.9492Z" fill="white"/>
<path d="M89.2821 19.0678C87.7228 19.0678 86.3499 18.7627 85.1634 18.1525C83.9939 17.5424 83.0872 16.7119 82.4431 15.661C81.799 14.5932 81.477 13.3814 81.477 12.0254C81.477 10.6525 81.7906 9.44068 82.4177 8.38983C83.0617 7.32203 83.9346 6.49153 85.0363 5.8983C86.138 5.28814 87.3838 4.98305 88.7736 4.98305C90.1126 4.98305 91.316 5.27119 92.3838 5.84746C93.4685 6.40678 94.3245 7.22034 94.9516 8.28814C95.5787 9.33898 95.8923 10.6017 95.8923 12.0763C95.8923 12.2288 95.8838 12.4068 95.8668 12.6102C95.8499 12.7966 95.8329 12.9746 95.816 13.1441H84.7058V10.8305H93.7312L92.2058 11.5169C92.2058 10.8051 92.0617 10.1864 91.7736 9.66102C91.4855 9.13559 91.0872 8.72881 90.5787 8.44068C90.0702 8.13559 89.477 7.98305 88.799 7.98305C88.1211 7.98305 87.5194 8.13559 86.9939 8.44068C86.4855 8.72881 86.0872 9.14407 85.799 9.68644C85.5109 10.2119 85.3668 10.839 85.3668 11.5678V12.178C85.3668 12.9237 85.5278 13.5847 85.8499 14.161C86.1889 14.7203 86.655 15.1525 87.2482 15.4576C87.8584 15.7458 88.5702 15.8898 89.3838 15.8898C90.1126 15.8898 90.7482 15.7797 91.2906 15.5593C91.8499 15.339 92.3584 15.0085 92.816 14.5678L94.9262 16.8559C94.299 17.5678 93.5109 18.1186 92.5617 18.5085C91.6126 18.8814 90.5194 19.0678 89.2821 19.0678Z" fill="white"/>
<path d="M106.846 4.98305C107.931 4.98305 108.897 5.20339 109.745 5.64407C110.609 6.0678 111.287 6.72881 111.779 7.62712C112.27 8.50847 112.516 9.64407 112.516 11.0339V18.8644H108.55V11.6441C108.55 10.5424 108.304 9.72881 107.812 9.20339C107.338 8.67797 106.66 8.41525 105.779 8.41525C105.151 8.41525 104.584 8.55085 104.075 8.82203C103.584 9.07627 103.194 9.47458 102.906 10.0169C102.634 10.5593 102.499 11.2542 102.499 12.1017V18.8644H98.5328V5.18644H102.321V8.97458L101.609 7.83051C102.101 6.91525 102.804 6.21186 103.719 5.72034C104.634 5.22881 105.677 4.98305 106.846 4.98305Z" fill="white"/>
<path d="M122.998 19.0678C121.439 19.0678 120.066 18.7627 118.88 18.1525C117.71 17.5424 116.803 16.7119 116.159 15.661C115.515 14.5932 115.193 13.3814 115.193 12.0254C115.193 10.6525 115.507 9.44068 116.134 8.38983C116.778 7.32203 117.651 6.49153 118.753 5.8983C119.854 5.28814 121.1 4.98305 122.49 4.98305C123.829 4.98305 125.032 5.27119 126.1 5.84746C127.185 6.40678 128.041 7.22034 128.668 8.28814C129.295 9.33898 129.609 10.6017 129.609 12.0763C129.609 12.2288 129.6 12.4068 129.583 12.6102C129.566 12.7966 129.549 12.9746 129.532 13.1441H118.422V10.8305H127.448L125.922 11.5169C125.922 10.8051 125.778 10.1864 125.49 9.66102C125.202 9.13559 124.803 8.72881 124.295 8.44068C123.786 8.13559 123.193 7.98305 122.515 7.98305C121.837 7.98305 121.236 8.13559 120.71 8.44068C120.202 8.72881 119.803 9.14407 119.515 9.68644C119.227 10.2119 119.083 10.839 119.083 11.5678V12.178C119.083 12.9237 119.244 13.5847 119.566 14.161C119.905 14.7203 120.371 15.1525 120.964 15.4576C121.575 15.7458 122.286 15.8898 123.1 15.8898C123.829 15.8898 124.464 15.7797 125.007 15.5593C125.566 15.339 126.075 15.0085 126.532 14.5678L128.642 16.8559C128.015 17.5678 127.227 18.1186 126.278 18.5085C125.329 18.8814 124.236 19.0678 122.998 19.0678Z" fill="white"/>
<path d="M5.69492 18.8644V4.42373H0V1.0678H15.5085V4.42373H9.81357V18.8644H5.69492Z" stroke="white" stroke-width="3.17797" mask="url(#path-1-inside-1_148_933)"/>
<path d="M22.8426 19.0678C21.2833 19.0678 19.9104 18.7627 18.724 18.1525C17.5545 17.5424 16.6477 16.7119 16.0037 15.661C15.3596 14.5932 15.0376 13.3814 15.0376 12.0254C15.0376 10.6525 15.3511 9.44068 15.9782 8.38983C16.6223 7.32203 17.4952 6.49153 18.5969 5.8983C19.6986 5.28814 20.9443 4.98305 22.3342 4.98305C23.6732 4.98305 24.8766 5.27119 25.9443 5.84746C27.0291 6.40678 27.885 7.22034 28.5121 8.28814C29.1393 9.33898 29.4528 10.6017 29.4528 12.0763C29.4528 12.2288 29.4444 12.4068 29.4274 12.6102C29.4105 12.7966 29.3935 12.9746 29.3766 13.1441H18.2664V10.8305H27.2918L25.7664 11.5169C25.7664 10.8051 25.6223 10.1864 25.3342 9.66102C25.046 9.13559 24.6477 8.72881 24.1393 8.44068C23.6308 8.13559 23.0376 7.98305 22.3596 7.98305C21.6816 7.98305 21.0799 8.13559 20.5545 8.44068C20.046 8.72881 19.6477 9.14407 19.3596 9.68644C19.0715 10.2119 18.9274 10.839 18.9274 11.5678V12.178C18.9274 12.9237 19.0884 13.5847 19.4104 14.161C19.7494 14.7203 20.2155 15.1525 20.8088 15.4576C21.4189 15.7458 22.1308 15.8898 22.9443 15.8898C23.6732 15.8898 24.3088 15.7797 24.8511 15.5593C25.4104 15.339 25.9189 15.0085 26.3766 14.5678L28.4867 16.8559C27.8596 17.5678 27.0715 18.1186 26.1223 18.5085C25.1732 18.8814 24.0799 19.0678 22.8426 19.0678Z" stroke="white" stroke-width="3.17797" mask="url(#path-1-inside-1_148_933)"/>
<path d="M38.7035 19.0678C37.2289 19.0678 35.9154 18.7712 34.7628 18.178C33.6103 17.5678 32.7035 16.7288 32.0425 15.661C31.3984 14.5932 31.0764 13.3814 31.0764 12.0254C31.0764 10.6525 31.3984 9.44068 32.0425 8.38983C32.7035 7.32203 33.6103 6.49153 34.7628 5.8983C35.9154 5.28814 37.2289 4.98305 38.7035 4.98305C40.1442 4.98305 41.3984 5.28814 42.4662 5.8983C43.534 6.49153 44.3222 7.34746 44.8306 8.4661L41.7544 10.1186C41.3984 9.47458 40.9493 9 40.4069 8.69492C39.8815 8.38983 39.3052 8.23729 38.6781 8.23729C38.0001 8.23729 37.3899 8.38983 36.8476 8.69492C36.3052 9 35.873 9.4322 35.551 9.99153C35.2459 10.5508 35.0933 11.2288 35.0933 12.0254C35.0933 12.822 35.2459 13.5 35.551 14.0593C35.873 14.6186 36.3052 15.0508 36.8476 15.3559C37.3899 15.661 38.0001 15.8136 38.6781 15.8136C39.3052 15.8136 39.8815 15.6695 40.4069 15.3814C40.9493 15.0763 41.3984 14.5932 41.7544 13.9322L44.8306 15.6102C44.3222 16.7119 43.534 17.5678 42.4662 18.178C41.3984 18.7712 40.1442 19.0678 38.7035 19.0678Z" stroke="white" stroke-width="3.17797" mask="url(#path-1-inside-1_148_933)"/>
<path d="M55.3285 4.98305C56.4132 4.98305 57.3793 5.20339 58.2268 5.64407C59.0912 6.0678 59.7691 6.72881 60.2607 7.62712C60.7522 8.50847 60.998 9.64407 60.998 11.0339V18.8644H57.0318V11.6441C57.0318 10.5424 56.7861 9.72881 56.2946 9.20339C55.82 8.67797 55.142 8.41525 54.2607 8.41525C53.6335 8.41525 53.0657 8.55085 52.5573 8.82203C52.0657 9.07627 51.6759 9.47458 51.3878 10.0169C51.1166 10.5593 50.981 11.2542 50.981 12.1017V18.8644H47.0149V0H50.981V8.97458L50.0912 7.83051C50.5827 6.91525 51.2861 6.21186 52.2013 5.72034C53.1166 5.22881 54.159 4.98305 55.3285 4.98305Z" stroke="white" stroke-width="3.17797" mask="url(#path-1-inside-1_148_933)"/>
<path d="M71.1245 24C69.8364 24 68.5907 23.839 67.3873 23.5169C66.2008 23.2119 65.2093 22.7458 64.4127 22.1186L65.989 19.2712C66.5652 19.7458 67.294 20.1186 68.1754 20.3898C69.0737 20.678 69.9551 20.822 70.8195 20.822C72.2262 20.822 73.2432 20.5085 73.8703 19.8814C74.5144 19.2542 74.8364 18.322 74.8364 17.0847V15.0254L75.0907 11.5932L75.0398 8.13559V5.18644H78.8025V16.5763C78.8025 19.1186 78.1415 20.9915 76.8195 22.1949C75.4974 23.3983 73.5991 24 71.1245 24ZM70.5144 18.2034C69.2432 18.2034 68.0907 17.9322 67.0567 17.3898C66.0398 16.8305 65.2178 16.0593 64.5906 15.0763C63.9805 14.0763 63.6754 12.9153 63.6754 11.5932C63.6754 10.2542 63.9805 9.09322 64.5906 8.11017C65.2178 7.11017 66.0398 6.33898 67.0567 5.79661C68.0907 5.25424 69.2432 4.98305 70.5144 4.98305C71.6669 4.98305 72.6839 5.22034 73.5652 5.69492C74.4466 6.15254 75.133 6.87288 75.6246 7.85593C76.1161 8.82203 76.3618 10.0678 76.3618 11.5932C76.3618 13.1017 76.1161 14.3475 75.6246 15.3305C75.133 16.2966 74.4466 17.0169 73.5652 17.4915C72.6839 17.9661 71.6669 18.2034 70.5144 18.2034ZM71.3025 14.9492C71.9974 14.9492 72.6161 14.8136 73.1585 14.5424C73.7008 14.2542 74.1245 13.8559 74.4296 13.3475C74.7347 12.839 74.8873 12.2542 74.8873 11.5932C74.8873 10.9153 74.7347 10.3305 74.4296 9.83898C74.1245 9.33051 73.7008 8.94068 73.1585 8.66949C72.6161 8.38136 71.9974 8.23729 71.3025 8.23729C70.6076 8.23729 69.989 8.38136 69.4466 8.66949C68.9042 8.94068 68.472 9.33051 68.15 9.83898C67.8449 10.3305 67.6923 10.9153 67.6923 11.5932C67.6923 12.2542 67.8449 12.839 68.15 13.3475C68.472 13.8559 68.9042 14.2542 69.4466 14.5424C69.989 14.8136 70.6076 14.9492 71.3025 14.9492Z" stroke="white" stroke-width="3.17797" mask="url(#path-1-inside-1_148_933)"/>
<path d="M89.2821 19.0678C87.7228 19.0678 86.3499 18.7627 85.1634 18.1525C83.9939 17.5424 83.0872 16.7119 82.4431 15.661C81.799 14.5932 81.477 13.3814 81.477 12.0254C81.477 10.6525 81.7906 9.44068 82.4177 8.38983C83.0617 7.32203 83.9346 6.49153 85.0363 5.8983C86.138 5.28814 87.3838 4.98305 88.7736 4.98305C90.1126 4.98305 91.316 5.27119 92.3838 5.84746C93.4685 6.40678 94.3245 7.22034 94.9516 8.28814C95.5787 9.33898 95.8923 10.6017 95.8923 12.0763C95.8923 12.2288 95.8838 12.4068 95.8668 12.6102C95.8499 12.7966 95.8329 12.9746 95.816 13.1441H84.7058V10.8305H93.7312L92.2058 11.5169C92.2058 10.8051 92.0617 10.1864 91.7736 9.66102C91.4855 9.13559 91.0872 8.72881 90.5787 8.44068C90.0702 8.13559 89.477 7.98305 88.799 7.98305C88.1211 7.98305 87.5194 8.13559 86.9939 8.44068C86.4855 8.72881 86.0872 9.14407 85.799 9.68644C85.5109 10.2119 85.3668 10.839 85.3668 11.5678V12.178C85.3668 12.9237 85.5278 13.5847 85.8499 14.161C86.1889 14.7203 86.655 15.1525 87.2482 15.4576C87.8584 15.7458 88.5702 15.8898 89.3838 15.8898C90.1126 15.8898 90.7482 15.7797 91.2906 15.5593C91.8499 15.339 92.3584 15.0085 92.816 14.5678L94.9262 16.8559C94.299 17.5678 93.5109 18.1186 92.5617 18.5085C91.6126 18.8814 90.5194 19.0678 89.2821 19.0678Z" stroke="white" stroke-width="3.17797" mask="url(#path-1-inside-1_148_933)"/>
<path d="M106.846 4.98305C107.931 4.98305 108.897 5.20339 109.745 5.64407C110.609 6.0678 111.287 6.72881 111.779 7.62712C112.27 8.50847 112.516 9.64407 112.516 11.0339V18.8644H108.55V11.6441C108.55 10.5424 108.304 9.72881 107.812 9.20339C107.338 8.67797 106.66 8.41525 105.779 8.41525C105.151 8.41525 104.584 8.55085 104.075 8.82203C103.584 9.07627 103.194 9.47458 102.906 10.0169C102.634 10.5593 102.499 11.2542 102.499 12.1017V18.8644H98.5328V5.18644H102.321V8.97458L101.609 7.83051C102.101 6.91525 102.804 6.21186 103.719 5.72034C104.634 5.22881 105.677 4.98305 106.846 4.98305Z" stroke="white" stroke-width="3.17797" mask="url(#path-1-inside-1_148_933)"/>
<path d="M122.998 19.0678C121.439 19.0678 120.066 18.7627 118.88 18.1525C117.71 17.5424 116.803 16.7119 116.159 15.661C115.515 14.5932 115.193 13.3814 115.193 12.0254C115.193 10.6525 115.507 9.44068 116.134 8.38983C116.778 7.32203 117.651 6.49153 118.753 5.8983C119.854 5.28814 121.1 4.98305 122.49 4.98305C123.829 4.98305 125.032 5.27119 126.1 5.84746C127.185 6.40678 128.041 7.22034 128.668 8.28814C129.295 9.33898 129.609 10.6017 129.609 12.0763C129.609 12.2288 129.6 12.4068 129.583 12.6102C129.566 12.7966 129.549 12.9746 129.532 13.1441H118.422V10.8305H127.448L125.922 11.5169C125.922 10.8051 125.778 10.1864 125.49 9.66102C125.202 9.13559 124.803 8.72881 124.295 8.44068C123.786 8.13559 123.193 7.98305 122.515 7.98305C121.837 7.98305 121.236 8.13559 120.71 8.44068C120.202 8.72881 119.803 9.14407 119.515 9.68644C119.227 10.2119 119.083 10.839 119.083 11.5678V12.178C119.083 12.9237 119.244 13.5847 119.566 14.161C119.905 14.7203 120.371 15.1525 120.964 15.4576C121.575 15.7458 122.286 15.8898 123.1 15.8898C123.829 15.8898 124.464 15.7797 125.007 15.5593C125.566 15.339 126.075 15.0085 126.532 14.5678L128.642 16.8559C128.015 17.5678 127.227 18.1186 126.278 18.5085C125.329 18.8814 124.236 19.0678 122.998 19.0678Z" stroke="white" stroke-width="3.17797" mask="url(#path-1-inside-1_148_933)"/>
</g>
</g>
</svg>
