<svg width="16" height="16" viewBox="0 0 16 16" fill="none" xmlns="http://www.w3.org/2000/svg">
<g id="Frame" clip-path="url(#clip0_148_863)">
<path id="Path_6363" d="M4.54512 15.5545C3.98712 15.5613 3.4344 15.4383 2.92176 15.1934C2.40912 14.9485 1.94813 14.5869 1.5687 14.1322C0.795445 13.1725 0.377693 11.9232 0.399231 10.6352V5.36094C0.378249 4.07314 0.795929 2.82401 1.5687 1.86398C1.94813 1.40931 2.40912 1.04772 2.92176 0.802783C3.4344 0.557846 3.98712 0.434893 4.54512 0.441672H11.4393C12.0058 0.449336 12.5652 0.583853 13.0838 0.837505C13.6023 1.09116 14.0694 1.4587 14.4571 1.9178C14.8448 2.3769 15.145 2.91822 15.3399 3.50938C15.5347 4.10054 15.6206 4.72917 15.5914 5.3579V10.5944C15.6254 11.2272 15.5432 11.8613 15.35 12.4577C15.1569 13.0542 14.857 13.6004 14.4681 14.0641C14.0791 14.5277 13.6088 14.8989 13.0869 15.1548C12.565 15.4106 12.0019 15.5461 11.4315 15.5528L4.54512 15.5545ZM1.55386 5.35964V10.6344C1.52189 11.0948 1.57474 11.558 1.7101 11.9946C1.84547 12.4313 2.06014 12.8321 2.34054 13.173C2.62094 13.5139 2.96126 13.7874 3.34049 13.9764C3.71972 14.1654 4.12953 14.266 4.54512 14.272H11.4252C11.8418 14.2659 12.2526 14.1655 12.633 13.9768C13.0134 13.7882 13.3555 13.5152 13.6376 13.1747C13.9198 12.8342 14.1364 12.4331 14.2743 11.9964C14.4122 11.5596 14.468 11.0961 14.4392 10.6344V5.32231C14.4614 4.86348 14.4005 4.40473 14.2603 3.97249C14.12 3.54024 13.9035 3.14367 13.6228 2.80626C13.3408 2.47046 13.0002 2.20151 12.6221 2.01589C12.244 1.83027 11.8362 1.73153 11.4229 1.72596H4.54277C4.12754 1.73215 3.7178 1.83305 3.33893 2.02197C2.96006 2.21088 2.62073 2.48391 2.34054 2.82448C2.06035 3.16506 1.84553 3.56579 1.7101 4.002C1.57468 4.43821 1.52146 4.90085 1.55308 5.36094L1.55386 5.35964ZM6.77001 8.95296L6.64579 8.85313L3.50533 6.07796C3.39153 5.97713 3.31622 5.83247 3.2944 5.67257C3.27258 5.51268 3.30636 5.34932 3.38814 5.21554C3.46992 5.08177 3.59397 4.98718 3.73578 4.95079C3.87759 4.91439 4.02666 4.93898 4.15295 5.01936L4.22404 5.07448L7.36138 7.84619C7.53075 7.99313 7.73663 8.07854 7.9512 8.09141C8.16577 8.10429 8.3787 8.04406 8.56132 7.91823L8.65116 7.84879L11.7666 5.07448C11.8806 4.97354 12.0244 4.92432 12.1697 4.93646C12.3151 4.94861 12.4511 5.02127 12.5502 5.14002C12.6493 5.25878 12.7042 5.41472 12.7041 5.57665C12.704 5.73859 12.6494 5.89465 12.5502 6.01329L12.4877 6.07882L9.36753 8.8566C8.9996 9.17562 8.55044 9.35671 8.084 9.37396C7.61757 9.39121 7.15778 9.24408 6.77157 8.95296H6.77001Z" fill="white"/>
</g>
<defs>
<clipPath id="clip0_148_863">
<rect width="16" height="16" fill="white"/>
</clipPath>
</defs>
</svg>
