<svg width="100%" className="h-full" viewBox="0 0 1033 398" fill="none" xmlns="http://www.w3.org/2000/svg">
<path d="M37.344 328.128C36.4693 328.128 35.6853 327.904 34.992 327.456C34.3093 327.008 33.7653 326.357 33.36 325.504C32.9653 324.651 32.768 323.616 32.768 322.4C32.768 321.184 32.9653 320.149 33.36 319.296C33.7653 318.443 34.3093 317.792 34.992 317.344C35.6853 316.896 36.4693 316.672 37.344 316.672C38.208 316.672 38.9867 316.896 39.68 317.344C40.3733 317.792 40.9173 318.443 41.312 319.296C41.7067 320.149 41.904 321.184 41.904 322.4C41.904 323.616 41.7067 324.651 41.312 325.504C40.9173 326.357 40.3733 327.008 39.68 327.456C38.9867 327.904 38.208 328.128 37.344 328.128ZM37.344 326.704C37.9307 326.704 38.4427 326.544 38.88 326.224C39.328 325.904 39.6747 325.424 39.92 324.784C40.176 324.144 40.304 323.349 40.304 322.4C40.304 321.451 40.176 320.656 39.92 320.016C39.6747 319.376 39.328 318.896 38.88 318.576C38.4427 318.256 37.9307 318.096 37.344 318.096C36.7573 318.096 36.24 318.256 35.792 318.576C35.344 318.896 34.992 319.376 34.736 320.016C34.4907 320.656 34.368 321.451 34.368 322.4C34.368 323.349 34.4907 324.144 34.736 324.784C34.992 325.424 35.344 325.904 35.792 326.224C36.24 326.544 36.7573 326.704 37.344 326.704Z" fill="#969696"/>
<!-- <rect width="1033" height="398" rx="24" fill="white"/> -->
<path d="M36.944 49.128C36.0907 49.128 35.2747 49 34.496 48.744C33.7173 48.4773 33.104 48.136 32.656 47.72L33.248 46.472C33.6747 46.8453 34.2187 47.1547 34.88 47.4C35.5413 47.6453 36.2293 47.768 36.944 47.768C37.5947 47.768 38.1227 47.6933 38.528 47.544C38.9333 47.3947 39.232 47.192 39.424 46.936C39.616 46.6693 39.712 46.3707 39.712 46.04C39.712 45.656 39.584 45.3467 39.328 45.112C39.0827 44.8773 38.7573 44.6907 38.352 44.552C37.9573 44.4027 37.52 44.2747 37.04 44.168C36.56 44.0613 36.0747 43.9387 35.584 43.8C35.104 43.6507 34.6613 43.464 34.256 43.24C33.8613 43.016 33.5413 42.7173 33.296 42.344C33.0507 41.96 32.928 41.4693 32.928 40.872C32.928 40.296 33.0773 39.768 33.376 39.288C33.6853 38.7973 34.1547 38.408 34.784 38.12C35.424 37.8213 36.2347 37.672 37.216 37.672C37.8667 37.672 38.512 37.7573 39.152 37.928C39.792 38.0987 40.3467 38.344 40.816 38.664L40.288 39.944C39.808 39.624 39.3013 39.3947 38.768 39.256C38.2347 39.1067 37.7173 39.032 37.216 39.032C36.5867 39.032 36.0693 39.112 35.664 39.272C35.2587 39.432 34.96 39.6453 34.768 39.912C34.5867 40.1787 34.496 40.4773 34.496 40.808C34.496 41.2027 34.6187 41.5173 34.864 41.752C35.12 41.9867 35.4453 42.1733 35.84 42.312C36.2453 42.4507 36.688 42.5787 37.168 42.696C37.648 42.8027 38.128 42.9253 38.608 43.064C39.0987 43.2027 39.5413 43.384 39.936 43.608C40.3413 43.832 40.6667 44.1307 40.912 44.504C41.1573 44.8773 41.28 45.3573 41.28 45.944C41.28 46.5093 41.1253 47.0373 40.816 47.528C40.5067 48.008 40.0267 48.3973 39.376 48.696C38.736 48.984 37.9253 49.128 36.944 49.128ZM48.6575 49V47.208L48.5775 46.872V43.816C48.5775 43.1653 48.3855 42.664 48.0015 42.312C47.6282 41.9493 47.0628 41.768 46.3055 41.768C45.8042 41.768 45.3135 41.8533 44.8335 42.024C44.3535 42.184 43.9482 42.4027 43.6175 42.68L42.9775 41.528C43.4148 41.176 43.9375 40.9093 44.5455 40.728C45.1642 40.536 45.8095 40.44 46.4815 40.44C47.6442 40.44 48.5402 40.7227 49.1695 41.288C49.7988 41.8533 50.1135 42.7173 50.1135 43.88V49H48.6575ZM45.8735 49.096C45.2442 49.096 44.6895 48.9893 44.2095 48.776C43.7402 48.5627 43.3775 48.2693 43.1215 47.896C42.8655 47.512 42.7375 47.08 42.7375 46.6C42.7375 46.1413 42.8442 45.7253 43.0575 45.352C43.2815 44.9787 43.6388 44.68 44.1295 44.456C44.6308 44.232 45.3028 44.12 46.1455 44.12H48.8335V45.224H46.2095C45.4415 45.224 44.9242 45.352 44.6575 45.608C44.3908 45.864 44.2575 46.1733 44.2575 46.536C44.2575 46.952 44.4228 47.288 44.7535 47.544C45.0842 47.7893 45.5428 47.912 46.1295 47.912C46.7055 47.912 47.2068 47.784 47.6335 47.528C48.0708 47.272 48.3855 46.8987 48.5775 46.408L48.8815 47.464C48.6788 47.9653 48.3215 48.3653 47.8095 48.664C47.2975 48.952 46.6522 49.096 45.8735 49.096ZM52.956 49V37.128H54.492V49H52.956ZM61.2008 49.096C60.2941 49.096 59.4941 48.9093 58.8008 48.536C58.1181 48.1627 57.5848 47.6507 57.2008 47C56.8274 46.3493 56.6408 45.6027 56.6408 44.76C56.6408 43.9173 56.8221 43.1707 57.1848 42.52C57.5581 41.8693 58.0648 41.3627 58.7048 41C59.3554 40.6267 60.0861 40.44 60.8968 40.44C61.7181 40.44 62.4434 40.6213 63.0728 40.984C63.7021 41.3467 64.1928 41.8587 64.5448 42.52C64.9074 43.1707 65.0888 43.9333 65.0888 44.808C65.0888 44.872 65.0834 44.9467 65.0728 45.032C65.0728 45.1173 65.0674 45.1973 65.0568 45.272H57.8408V44.168H64.2568L63.6328 44.552C63.6434 44.008 63.5314 43.5227 63.2968 43.096C63.0621 42.6693 62.7368 42.3387 62.3208 42.104C61.9154 41.8587 61.4408 41.736 60.8968 41.736C60.3634 41.736 59.8888 41.8587 59.4728 42.104C59.0568 42.3387 58.7314 42.6747 58.4968 43.112C58.2621 43.5387 58.1448 44.0293 58.1448 44.584V44.84C58.1448 45.4053 58.2728 45.912 58.5288 46.36C58.7954 46.7973 59.1634 47.1387 59.6328 47.384C60.1021 47.6293 60.6408 47.752 61.2488 47.752C61.7501 47.752 62.2034 47.6667 62.6088 47.496C63.0248 47.3253 63.3874 47.0693 63.6968 46.728L64.5448 47.72C64.1608 48.168 63.6808 48.5093 63.1048 48.744C62.5394 48.9787 61.9048 49.096 61.2008 49.096ZM69.6536 49.096C68.9496 49.096 68.2776 49 67.6376 48.808C67.0083 48.616 66.5123 48.3813 66.1496 48.104L66.7896 46.888C67.1523 47.1333 67.6003 47.3413 68.1336 47.512C68.667 47.6827 69.211 47.768 69.7656 47.768C70.4803 47.768 70.9923 47.6667 71.3016 47.464C71.6216 47.2613 71.7816 46.9787 71.7816 46.616C71.7816 46.3493 71.6856 46.1413 71.4936 45.992C71.3016 45.8427 71.0456 45.7307 70.7256 45.656C70.4163 45.5813 70.0696 45.5173 69.6856 45.464C69.3016 45.4 68.9176 45.3253 68.5336 45.24C68.1496 45.144 67.7976 45.016 67.4776 44.856C67.1576 44.6853 66.9016 44.456 66.7096 44.168C66.5176 43.8693 66.4216 43.4747 66.4216 42.984C66.4216 42.472 66.5656 42.024 66.8536 41.64C67.1416 41.256 67.547 40.9627 68.0696 40.76C68.603 40.5467 69.2323 40.44 69.9576 40.44C70.5123 40.44 71.0723 40.5093 71.6376 40.648C72.2136 40.776 72.683 40.9627 73.0456 41.208L72.3896 42.424C72.0056 42.168 71.6056 41.992 71.1896 41.896C70.7736 41.8 70.3576 41.752 69.9416 41.752C69.2696 41.752 68.7683 41.864 68.4376 42.088C68.107 42.3013 67.9416 42.5787 67.9416 42.92C67.9416 43.208 68.0376 43.432 68.2296 43.592C68.4323 43.7413 68.6883 43.8587 68.9976 43.944C69.3176 44.0293 69.6696 44.104 70.0536 44.168C70.4376 44.2213 70.8216 44.296 71.2056 44.392C71.5896 44.4773 71.9363 44.6 72.2456 44.76C72.5656 44.92 72.8216 45.144 73.0136 45.432C73.2163 45.72 73.3176 46.104 73.3176 46.584C73.3176 47.096 73.1683 47.5387 72.8696 47.912C72.571 48.2853 72.1496 48.5787 71.6056 48.792C71.0616 48.9947 70.411 49.096 69.6536 49.096ZM79.7581 49V37.8H84.1261C85.1075 37.8 85.9448 37.9547 86.6381 38.264C87.3315 38.5733 87.8648 39.0213 88.2381 39.608C88.6115 40.1947 88.7981 40.8933 88.7981 41.704C88.7981 42.5147 88.6115 43.2133 88.2381 43.8C87.8648 44.376 87.3315 44.8187 86.6381 45.128C85.9448 45.4373 85.1075 45.592 84.1261 45.592H80.6381L81.3581 44.856V49H79.7581ZM87.2461 49L84.3981 44.936H86.1101L88.9901 49H87.2461ZM81.3581 45.016L80.6381 44.232H84.0781C85.1021 44.232 85.8755 44.0133 86.3981 43.576C86.9315 43.128 87.1981 42.504 87.1981 41.704C87.1981 40.904 86.9315 40.2853 86.3981 39.848C85.8755 39.4107 85.1021 39.192 84.0781 39.192H80.6381L81.3581 38.392V45.016ZM94.9351 49.096C94.0285 49.096 93.2285 48.9093 92.5351 48.536C91.8525 48.1627 91.3191 47.6507 90.9351 47C90.5618 46.3493 90.3751 45.6027 90.3751 44.76C90.3751 43.9173 90.5565 43.1707 90.9191 42.52C91.2925 41.8693 91.7991 41.3627 92.4391 41C93.0898 40.6267 93.8205 40.44 94.6311 40.44C95.4525 40.44 96.1778 40.6213 96.8071 40.984C97.4365 41.3467 97.9271 41.8587 98.2791 42.52C98.6418 43.1707 98.8231 43.9333 98.8231 44.808C98.8231 44.872 98.8178 44.9467 98.8071 45.032C98.8071 45.1173 98.8018 45.1973 98.7911 45.272H91.5751V44.168H97.9911L97.3671 44.552C97.3778 44.008 97.2658 43.5227 97.0311 43.096C96.7965 42.6693 96.4711 42.3387 96.0551 42.104C95.6498 41.8587 95.1751 41.736 94.6311 41.736C94.0978 41.736 93.6231 41.8587 93.2071 42.104C92.7911 42.3387 92.4658 42.6747 92.2311 43.112C91.9965 43.5387 91.8791 44.0293 91.8791 44.584V44.84C91.8791 45.4053 92.0071 45.912 92.2631 46.36C92.5298 46.7973 92.8978 47.1387 93.3671 47.384C93.8365 47.6293 94.3751 47.752 94.9831 47.752C95.4845 47.752 95.9378 47.6667 96.3431 47.496C96.7591 47.3253 97.1218 47.0693 97.4311 46.728L98.2791 47.72C97.8951 48.168 97.4151 48.5093 96.8391 48.744C96.2738 48.9787 95.6391 49.096 94.9351 49.096ZM105.452 49.096C104.748 49.096 104.103 48.936 103.516 48.616C102.94 48.2853 102.476 47.8 102.124 47.16C101.783 46.52 101.612 45.72 101.612 44.76C101.612 43.8 101.777 43 102.108 42.36C102.449 41.72 102.908 41.24 103.484 40.92C104.071 40.6 104.727 40.44 105.452 40.44C106.284 40.44 107.02 40.6213 107.66 40.984C108.3 41.3467 108.807 41.8533 109.18 42.504C109.553 43.144 109.74 43.896 109.74 44.76C109.74 45.624 109.553 46.3813 109.18 47.032C108.807 47.6827 108.3 48.1893 107.66 48.552C107.02 48.9147 106.284 49.096 105.452 49.096ZM100.956 52.104V40.52H102.428V42.808L102.332 44.776L102.492 46.744V52.104H100.956ZM105.324 47.752C105.868 47.752 106.353 47.6293 106.78 47.384C107.217 47.1387 107.559 46.792 107.804 46.344C108.06 45.8853 108.188 45.3573 108.188 44.76C108.188 44.152 108.06 43.6293 107.804 43.192C107.559 42.744 107.217 42.3973 106.78 42.152C106.353 41.9067 105.868 41.784 105.324 41.784C104.791 41.784 104.305 41.9067 103.868 42.152C103.441 42.3973 103.1 42.744 102.844 43.192C102.599 43.6293 102.476 44.152 102.476 44.76C102.476 45.3573 102.599 45.8853 102.844 46.344C103.1 46.792 103.441 47.1387 103.868 47.384C104.305 47.6293 104.791 47.752 105.324 47.752ZM115.494 49.096C114.641 49.096 113.884 48.9093 113.222 48.536C112.561 48.1627 112.038 47.6507 111.654 47C111.27 46.3387 111.078 45.592 111.078 44.76C111.078 43.9173 111.27 43.1707 111.654 42.52C112.038 41.8693 112.561 41.3627 113.222 41C113.884 40.6267 114.641 40.44 115.494 40.44C116.337 40.44 117.089 40.6267 117.75 41C118.422 41.3627 118.945 41.8693 119.318 42.52C119.702 43.16 119.894 43.9067 119.894 44.76C119.894 45.6027 119.702 46.3493 119.318 47C118.945 47.6507 118.422 48.1627 117.75 48.536C117.089 48.9093 116.337 49.096 115.494 49.096ZM115.494 47.752C116.038 47.752 116.524 47.6293 116.95 47.384C117.388 47.1387 117.729 46.792 117.974 46.344C118.22 45.8853 118.342 45.3573 118.342 44.76C118.342 44.152 118.22 43.6293 117.974 43.192C117.729 42.744 117.388 42.3973 116.95 42.152C116.524 41.9067 116.038 41.784 115.494 41.784C114.95 41.784 114.465 41.9067 114.038 42.152C113.612 42.3973 113.27 42.744 113.014 43.192C112.758 43.6293 112.63 44.152 112.63 44.76C112.63 45.3573 112.758 45.8853 113.014 46.344C113.27 46.792 113.612 47.1387 114.038 47.384C114.465 47.6293 114.95 47.752 115.494 47.752ZM122.019 49V40.52H123.491V42.824L123.347 42.248C123.581 41.6613 123.976 41.2133 124.531 40.904C125.085 40.5947 125.768 40.44 126.579 40.44V41.928C126.515 41.9173 126.451 41.912 126.387 41.912C126.333 41.912 126.28 41.912 126.227 41.912C125.405 41.912 124.755 42.1573 124.275 42.648C123.795 43.1387 123.555 43.848 123.555 44.776V49H122.019ZM131.727 49.096C130.874 49.096 130.213 48.8667 129.743 48.408C129.274 47.9493 129.039 47.2933 129.039 46.44V38.664H130.575V46.376C130.575 46.8347 130.687 47.1867 130.911 47.432C131.146 47.6773 131.477 47.8 131.903 47.8C132.383 47.8 132.783 47.6667 133.103 47.4L133.583 48.504C133.349 48.7067 133.066 48.856 132.735 48.952C132.415 49.048 132.079 49.096 131.727 49.096ZM127.599 41.784V40.52H133.007V41.784H127.599Z" fill="#001128"/>
<path d="M36.384 98.128C35.5947 98.128 34.8267 98.0053 34.08 97.76C33.344 97.5147 32.7413 97.184 32.272 96.768L33.008 95.504C33.3813 95.856 33.8667 96.144 34.464 96.368C35.0613 96.592 35.696 96.704 36.368 96.704C37.2213 96.704 37.8773 96.5227 38.336 96.16C38.7947 95.7973 39.024 95.312 39.024 94.704C39.024 94.288 38.9227 93.9253 38.72 93.616C38.5173 93.3067 38.1653 93.072 37.664 92.912C37.1733 92.7413 36.496 92.656 35.632 92.656H33.088L33.68 86.8H40V88.192H34.272L35.104 87.408L34.64 92.032L33.808 91.264H35.968C37.088 91.264 37.9893 91.408 38.672 91.696C39.3547 91.984 39.8507 92.384 40.16 92.896C40.4693 93.3973 40.624 93.9787 40.624 94.64C40.624 95.28 40.4693 95.8667 40.16 96.4C39.8507 96.9227 39.3813 97.344 38.752 97.664C38.1333 97.9733 37.344 98.128 36.384 98.128ZM46.5315 98.128C45.6568 98.128 44.8728 97.904 44.1795 97.456C43.4968 97.008 42.9528 96.3573 42.5475 95.504C42.1528 94.6507 41.9555 93.616 41.9555 92.4C41.9555 91.184 42.1528 90.1493 42.5475 89.296C42.9528 88.4427 43.4968 87.792 44.1795 87.344C44.8728 86.896 45.6568 86.672 46.5315 86.672C47.3955 86.672 48.1742 86.896 48.8675 87.344C49.5608 87.792 50.1048 88.4427 50.4995 89.296C50.8942 90.1493 51.0915 91.184 51.0915 92.4C51.0915 93.616 50.8942 94.6507 50.4995 95.504C50.1048 96.3573 49.5608 97.008 48.8675 97.456C48.1742 97.904 47.3955 98.128 46.5315 98.128ZM46.5315 96.704C47.1182 96.704 47.6302 96.544 48.0675 96.224C48.5155 95.904 48.8622 95.424 49.1075 94.784C49.3635 94.144 49.4915 93.3493 49.4915 92.4C49.4915 91.4507 49.3635 90.656 49.1075 90.016C48.8622 89.376 48.5155 88.896 48.0675 88.576C47.6302 88.256 47.1182 88.096 46.5315 88.096C45.9448 88.096 45.4275 88.256 44.9795 88.576C44.5315 88.896 44.1795 89.376 43.9235 90.016C43.6782 90.656 43.5555 91.4507 43.5555 92.4C43.5555 93.3493 43.6782 94.144 43.9235 94.784C44.1795 95.424 44.5315 95.904 44.9795 96.224C45.4275 96.544 45.9448 96.704 46.5315 96.704ZM54.5634 95.952L54.5954 93.984L59.4754 89.52H61.3314L57.5874 93.2L56.7554 93.904L54.5634 95.952ZM53.3154 98V86.128H54.8514V98H53.3154ZM59.7954 98L56.4674 93.872L57.4594 92.64L61.6834 98H59.7954Z" fill="#969696"/>
<path d="M32.608 141.248V140.128L38.336 132.8H40.064L34.384 140.128L33.568 139.872H42.512V141.248H32.608ZM38.832 144V141.248L38.88 139.872V137.44H40.384V144H38.832ZM48.0471 144.128C47.1725 144.128 46.3885 143.904 45.6951 143.456C45.0125 143.008 44.4685 142.357 44.0631 141.504C43.6685 140.651 43.4711 139.616 43.4711 138.4C43.4711 137.184 43.6685 136.149 44.0631 135.296C44.4685 134.443 45.0125 133.792 45.6951 133.344C46.3885 132.896 47.1725 132.672 48.0471 132.672C48.9111 132.672 49.6898 132.896 50.3831 133.344C51.0765 133.792 51.6205 134.443 52.0151 135.296C52.4098 136.149 52.6071 137.184 52.6071 138.4C52.6071 139.616 52.4098 140.651 52.0151 141.504C51.6205 142.357 51.0765 143.008 50.3831 143.456C49.6898 143.904 48.9111 144.128 48.0471 144.128ZM48.0471 142.704C48.6338 142.704 49.1458 142.544 49.5831 142.224C50.0311 141.904 50.3778 141.424 50.6231 140.784C50.8791 140.144 51.0071 139.349 51.0071 138.4C51.0071 137.451 50.8791 136.656 50.6231 136.016C50.3778 135.376 50.0311 134.896 49.5831 134.576C49.1458 134.256 48.6338 134.096 48.0471 134.096C47.4605 134.096 46.9431 134.256 46.4951 134.576C46.0471 134.896 45.6951 135.376 45.4391 136.016C45.1938 136.656 45.0711 137.451 45.0711 138.4C45.0711 139.349 45.1938 140.144 45.4391 140.784C45.6951 141.424 46.0471 141.904 46.4951 142.224C46.9431 142.544 47.4605 142.704 48.0471 142.704ZM56.079 141.952L56.111 139.984L60.991 135.52H62.847L59.103 139.2L58.271 139.904L56.079 141.952ZM54.831 144V132.128H56.367V144H54.831ZM61.311 144L57.983 139.872L58.975 138.64L63.199 144H61.311Z" fill="#969696"/>
<path d="M36.192 190.128C35.4027 190.128 34.6347 190.005 33.888 189.76C33.152 189.515 32.5493 189.184 32.08 188.768L32.816 187.504C33.1893 187.856 33.6747 188.144 34.272 188.368C34.8693 188.592 35.5093 188.704 36.192 188.704C37.024 188.704 37.6693 188.528 38.128 188.176C38.5973 187.813 38.832 187.328 38.832 186.72C38.832 186.133 38.608 185.664 38.16 185.312C37.7227 184.949 37.024 184.768 36.064 184.768H35.168V183.648L38.496 179.552L38.72 180.192H32.592V178.8H39.984V179.888L36.672 183.968L35.84 183.472H36.368C37.7227 183.472 38.736 183.776 39.408 184.384C40.0907 184.992 40.432 185.765 40.432 186.704C40.432 187.333 40.2773 187.909 39.968 188.432C39.6587 188.955 39.1893 189.371 38.56 189.68C37.9413 189.979 37.152 190.128 36.192 190.128ZM46.5003 190.128C45.6256 190.128 44.8416 189.904 44.1483 189.456C43.4656 189.008 42.9216 188.357 42.5163 187.504C42.1216 186.651 41.9243 185.616 41.9243 184.4C41.9243 183.184 42.1216 182.149 42.5163 181.296C42.9216 180.443 43.4656 179.792 44.1483 179.344C44.8416 178.896 45.6256 178.672 46.5003 178.672C47.3643 178.672 48.1429 178.896 48.8363 179.344C49.5296 179.792 50.0736 180.443 50.4683 181.296C50.8629 182.149 51.0603 183.184 51.0603 184.4C51.0603 185.616 50.8629 186.651 50.4683 187.504C50.0736 188.357 49.5296 189.008 48.8363 189.456C48.1429 189.904 47.3643 190.128 46.5003 190.128ZM46.5003 188.704C47.0869 188.704 47.5989 188.544 48.0363 188.224C48.4843 187.904 48.8309 187.424 49.0763 186.784C49.3323 186.144 49.4603 185.349 49.4603 184.4C49.4603 183.451 49.3323 182.656 49.0763 182.016C48.8309 181.376 48.4843 180.896 48.0363 180.576C47.5989 180.256 47.0869 180.096 46.5003 180.096C45.9136 180.096 45.3963 180.256 44.9483 180.576C44.5003 180.896 44.1483 181.376 43.8923 182.016C43.6469 182.656 43.5243 183.451 43.5243 184.4C43.5243 185.349 43.6469 186.144 43.8923 186.784C44.1483 187.424 44.5003 187.904 44.9483 188.224C45.3963 188.544 45.9136 188.704 46.5003 188.704ZM54.5321 187.952L54.5641 185.984L59.4441 181.52H61.3001L57.5561 185.2L56.7241 185.904L54.5321 187.952ZM53.2841 190V178.128H54.8201V190H53.2841ZM59.7641 190L56.4361 185.872L57.4281 184.64L61.6521 190H59.7641Z" fill="#969696"/>
<path d="M32.592 236V234.912L37.152 230.512C37.5573 230.128 37.856 229.792 38.048 229.504C38.2507 229.205 38.384 228.933 38.448 228.688C38.5227 228.432 38.56 228.187 38.56 227.952C38.56 227.376 38.3573 226.923 37.952 226.592C37.5467 226.261 36.9547 226.096 36.176 226.096C35.5787 226.096 35.04 226.197 34.56 226.4C34.08 226.592 33.664 226.896 33.312 227.312L32.224 226.368C32.6507 225.824 33.2213 225.408 33.936 225.12C34.6613 224.821 35.456 224.672 36.32 224.672C37.0987 224.672 37.776 224.8 38.352 225.056C38.928 225.301 39.3707 225.659 39.68 226.128C40 226.597 40.16 227.152 40.16 227.792C40.16 228.155 40.112 228.512 40.016 228.864C39.92 229.216 39.7387 229.589 39.472 229.984C39.2053 230.379 38.8213 230.821 38.32 231.312L34.256 235.232L33.872 234.608H40.64V236H32.592ZM46.5159 236.128C45.6412 236.128 44.8572 235.904 44.1639 235.456C43.4812 235.008 42.9372 234.357 42.5319 233.504C42.1372 232.651 41.9399 231.616 41.9399 230.4C41.9399 229.184 42.1372 228.149 42.5319 227.296C42.9372 226.443 43.4812 225.792 44.1639 225.344C44.8572 224.896 45.6412 224.672 46.5159 224.672C47.3799 224.672 48.1585 224.896 48.8519 225.344C49.5452 225.792 50.0892 226.443 50.4839 227.296C50.8785 228.149 51.0759 229.184 51.0759 230.4C51.0759 231.616 50.8785 232.651 50.4839 233.504C50.0892 234.357 49.5452 235.008 48.8519 235.456C48.1585 235.904 47.3799 236.128 46.5159 236.128ZM46.5159 234.704C47.1025 234.704 47.6145 234.544 48.0519 234.224C48.4999 233.904 48.8465 233.424 49.0919 232.784C49.3479 232.144 49.4759 231.349 49.4759 230.4C49.4759 229.451 49.3479 228.656 49.0919 228.016C48.8465 227.376 48.4999 226.896 48.0519 226.576C47.6145 226.256 47.1025 226.096 46.5159 226.096C45.9292 226.096 45.4119 226.256 44.9639 226.576C44.5159 226.896 44.1639 227.376 43.9079 228.016C43.6625 228.656 43.5399 229.451 43.5399 230.4C43.5399 231.349 43.6625 232.144 43.9079 232.784C44.1639 233.424 44.5159 233.904 44.9639 234.224C45.4119 234.544 45.9292 234.704 46.5159 234.704ZM54.5478 233.952L54.5798 231.984L59.4598 227.52H61.3158L57.5718 231.2L56.7398 231.904L54.5478 233.952ZM53.2998 236V224.128H54.8358V236H53.2998ZM59.7798 236L56.4518 231.872L57.4438 230.64L61.6678 236H59.7798Z" fill="#969696"/>
<path d="M34.656 282V271.44L35.344 272.192H32.128V270.8H36.24V282H34.656ZM43.2659 282.128C42.3912 282.128 41.6072 281.904 40.9139 281.456C40.2312 281.008 39.6872 280.357 39.2819 279.504C38.8872 278.651 38.6899 277.616 38.6899 276.4C38.6899 275.184 38.8872 274.149 39.2819 273.296C39.6872 272.443 40.2312 271.792 40.9139 271.344C41.6072 270.896 42.3912 270.672 43.2659 270.672C44.1299 270.672 44.9085 270.896 45.6019 271.344C46.2952 271.792 46.8392 272.443 47.2339 273.296C47.6285 274.149 47.8259 275.184 47.8259 276.4C47.8259 277.616 47.6285 278.651 47.2339 279.504C46.8392 280.357 46.2952 281.008 45.6019 281.456C44.9085 281.904 44.1299 282.128 43.2659 282.128ZM43.2659 280.704C43.8525 280.704 44.3645 280.544 44.8019 280.224C45.2499 279.904 45.5965 279.424 45.8419 278.784C46.0979 278.144 46.2259 277.349 46.2259 276.4C46.2259 275.451 46.0979 274.656 45.8419 274.016C45.5965 273.376 45.2499 272.896 44.8019 272.576C44.3645 272.256 43.8525 272.096 43.2659 272.096C42.6792 272.096 42.1619 272.256 41.7139 272.576C41.2659 272.896 40.9139 273.376 40.6579 274.016C40.4125 274.656 40.2899 275.451 40.2899 276.4C40.2899 277.349 40.4125 278.144 40.6579 278.784C40.9139 279.424 41.2659 279.904 41.7139 280.224C42.1619 280.544 42.6792 280.704 43.2659 280.704ZM51.2978 279.952L51.3298 277.984L56.2098 273.52H58.0658L54.3218 277.2L53.4898 277.904L51.2978 279.952ZM50.0498 282V270.128H51.5858V282H50.0498ZM56.5298 282L53.2018 277.872L54.1938 276.64L58.4178 282H56.5298Z" fill="#969696"/>
<path d="M87.2919 361.128C86.6305 361.128 86.0119 360.989 85.4359 360.712C84.8599 360.435 84.3905 360.035 84.0279 359.512L84.9559 358.424C85.2652 358.851 85.6119 359.181 85.9959 359.416C86.3905 359.64 86.8225 359.752 87.2919 359.752C88.5719 359.752 89.2119 358.995 89.2119 357.48V351.192H85.1639V349.8H90.7959V357.4C90.7959 358.648 90.4972 359.581 89.8999 360.2C89.3132 360.819 88.4439 361.128 87.2919 361.128ZM99.095 361V359.208L99.015 358.872V355.816C99.015 355.165 98.823 354.664 98.439 354.312C98.0657 353.949 97.5003 353.768 96.743 353.768C96.2417 353.768 95.751 353.853 95.271 354.024C94.791 354.184 94.3857 354.403 94.055 354.68L93.415 353.528C93.8523 353.176 94.375 352.909 94.983 352.728C95.6017 352.536 96.247 352.44 96.919 352.44C98.0817 352.44 98.9777 352.723 99.607 353.288C100.236 353.853 100.551 354.717 100.551 355.88V361H99.095ZM96.311 361.096C95.6817 361.096 95.127 360.989 94.647 360.776C94.1777 360.563 93.815 360.269 93.559 359.896C93.303 359.512 93.175 359.08 93.175 358.6C93.175 358.141 93.2817 357.725 93.495 357.352C93.719 356.979 94.0763 356.68 94.567 356.456C95.0683 356.232 95.7403 356.12 96.583 356.12H99.271V357.224H96.647C95.879 357.224 95.3617 357.352 95.095 357.608C94.8283 357.864 94.695 358.173 94.695 358.536C94.695 358.952 94.8603 359.288 95.191 359.544C95.5217 359.789 95.9803 359.912 96.567 359.912C97.143 359.912 97.6443 359.784 98.071 359.528C98.5083 359.272 98.823 358.899 99.015 358.408L99.319 359.464C99.1163 359.965 98.759 360.365 98.247 360.664C97.735 360.952 97.0897 361.096 96.311 361.096ZM107.922 352.44C108.615 352.44 109.223 352.573 109.746 352.84C110.279 353.107 110.695 353.512 110.994 354.056C111.292 354.6 111.442 355.288 111.442 356.12V361H109.906V356.296C109.906 355.475 109.703 354.856 109.298 354.44C108.903 354.024 108.343 353.816 107.618 353.816C107.074 353.816 106.599 353.923 106.194 354.136C105.788 354.349 105.474 354.664 105.25 355.08C105.036 355.496 104.93 356.013 104.93 356.632V361H103.394V352.52H104.866V354.808L104.626 354.2C104.903 353.645 105.33 353.213 105.906 352.904C106.482 352.595 107.154 352.44 107.922 352.44Z" fill="#969696"/>
<path d="M164.323 355.096H170.099V356.472H164.323V355.096ZM164.483 361H162.883V349.8H170.787V351.192H164.483V361ZM176.326 361.096C175.419 361.096 174.619 360.909 173.926 360.536C173.243 360.163 172.71 359.651 172.326 359C171.952 358.349 171.766 357.603 171.766 356.76C171.766 355.917 171.947 355.171 172.31 354.52C172.683 353.869 173.19 353.363 173.83 353C174.48 352.627 175.211 352.44 176.022 352.44C176.843 352.44 177.568 352.621 178.198 352.984C178.827 353.347 179.318 353.859 179.67 354.52C180.032 355.171 180.214 355.933 180.214 356.808C180.214 356.872 180.208 356.947 180.198 357.032C180.198 357.117 180.192 357.197 180.182 357.272H172.966V356.168H179.382L178.758 356.552C178.768 356.008 178.656 355.523 178.422 355.096C178.187 354.669 177.862 354.339 177.446 354.104C177.04 353.859 176.566 353.736 176.022 353.736C175.488 353.736 175.014 353.859 174.598 354.104C174.182 354.339 173.856 354.675 173.622 355.112C173.387 355.539 173.27 356.029 173.27 356.584V356.84C173.27 357.405 173.398 357.912 173.654 358.36C173.92 358.797 174.288 359.139 174.758 359.384C175.227 359.629 175.766 359.752 176.374 359.752C176.875 359.752 177.328 359.667 177.734 359.496C178.15 359.325 178.512 359.069 178.822 358.728L179.67 359.72C179.286 360.168 178.806 360.509 178.23 360.744C177.664 360.979 177.03 361.096 176.326 361.096ZM186.843 361.096C186.117 361.096 185.461 360.936 184.875 360.616C184.299 360.285 183.84 359.8 183.499 359.16C183.168 358.52 183.003 357.72 183.003 356.76C183.003 355.8 183.173 355 183.515 354.36C183.867 353.72 184.331 353.24 184.907 352.92C185.493 352.6 186.139 352.44 186.843 352.44C187.675 352.44 188.411 352.621 189.051 352.984C189.691 353.347 190.197 353.853 190.571 354.504C190.944 355.144 191.131 355.896 191.131 356.76C191.131 357.624 190.944 358.381 190.571 359.032C190.197 359.683 189.691 360.189 189.051 360.552C188.411 360.915 187.675 361.096 186.843 361.096ZM182.347 361V349.128H183.883V354.776L183.723 356.744L183.819 358.712V361H182.347ZM186.715 359.752C187.259 359.752 187.744 359.629 188.171 359.384C188.608 359.139 188.949 358.792 189.195 358.344C189.451 357.885 189.579 357.357 189.579 356.76C189.579 356.152 189.451 355.629 189.195 355.192C188.949 354.744 188.608 354.397 188.171 354.152C187.744 353.907 187.259 353.784 186.715 353.784C186.181 353.784 185.696 353.907 185.259 354.152C184.832 354.397 184.491 354.744 184.235 355.192C183.989 355.629 183.867 356.152 183.867 356.76C183.867 357.357 183.989 357.885 184.235 358.344C184.491 358.792 184.832 359.139 185.259 359.384C185.696 359.629 186.181 359.752 186.715 359.752Z" fill="#969696"/>
<path d="M241.977 361V349.8H243.289L248.313 358.264H247.609L252.569 349.8H253.881L253.897 361H252.361L252.345 352.216H252.713L248.297 359.64H247.561L243.113 352.216H243.513V361H241.977ZM262.298 361V359.208L262.218 358.872V355.816C262.218 355.165 262.026 354.664 261.642 354.312C261.269 353.949 260.703 353.768 259.946 353.768C259.445 353.768 258.954 353.853 258.474 354.024C257.994 354.184 257.589 354.403 257.258 354.68L256.618 353.528C257.055 353.176 257.578 352.909 258.186 352.728C258.805 352.536 259.45 352.44 260.122 352.44C261.285 352.44 262.181 352.723 262.81 353.288C263.439 353.853 263.754 354.717 263.754 355.88V361H262.298ZM259.514 361.096C258.885 361.096 258.33 360.989 257.85 360.776C257.381 360.563 257.018 360.269 256.762 359.896C256.506 359.512 256.378 359.08 256.378 358.6C256.378 358.141 256.485 357.725 256.698 357.352C256.922 356.979 257.279 356.68 257.77 356.456C258.271 356.232 258.943 356.12 259.786 356.12H262.474V357.224H259.85C259.082 357.224 258.565 357.352 258.298 357.608C258.031 357.864 257.898 358.173 257.898 358.536C257.898 358.952 258.063 359.288 258.394 359.544C258.725 359.789 259.183 359.912 259.77 359.912C260.346 359.912 260.847 359.784 261.274 359.528C261.711 359.272 262.026 358.899 262.218 358.408L262.522 359.464C262.319 359.965 261.962 360.365 261.45 360.664C260.938 360.952 260.293 361.096 259.514 361.096ZM266.597 361V352.52H268.069V354.824L267.925 354.248C268.159 353.661 268.554 353.213 269.109 352.904C269.663 352.595 270.346 352.44 271.157 352.44V353.928C271.093 353.917 271.029 353.912 270.965 353.912C270.911 353.912 270.858 353.912 270.805 353.912C269.983 353.912 269.333 354.157 268.853 354.648C268.373 355.139 268.133 355.848 268.133 356.776V361H266.597Z" fill="#969696"/>
<path d="M320.39 361L325.462 349.8H327.046L332.134 361H330.454L325.926 350.696H326.566L322.038 361H320.39ZM322.55 358.2L322.982 356.92H329.286L329.75 358.2H322.55ZM338.077 361.096C337.373 361.096 336.728 360.936 336.141 360.616C335.565 360.285 335.101 359.8 334.749 359.16C334.408 358.52 334.237 357.72 334.237 356.76C334.237 355.8 334.402 355 334.733 354.36C335.074 353.72 335.533 353.24 336.109 352.92C336.696 352.6 337.352 352.44 338.077 352.44C338.909 352.44 339.645 352.621 340.285 352.984C340.925 353.347 341.432 353.853 341.805 354.504C342.178 355.144 342.365 355.896 342.365 356.76C342.365 357.624 342.178 358.381 341.805 359.032C341.432 359.683 340.925 360.189 340.285 360.552C339.645 360.915 338.909 361.096 338.077 361.096ZM333.581 364.104V352.52H335.053V354.808L334.957 356.776L335.117 358.744V364.104H333.581ZM337.949 359.752C338.493 359.752 338.978 359.629 339.405 359.384C339.842 359.139 340.184 358.792 340.429 358.344C340.685 357.885 340.813 357.357 340.813 356.76C340.813 356.152 340.685 355.629 340.429 355.192C340.184 354.744 339.842 354.397 339.405 354.152C338.978 353.907 338.493 353.784 337.949 353.784C337.416 353.784 336.93 353.907 336.493 354.152C336.066 354.397 335.725 354.744 335.469 355.192C335.224 355.629 335.101 356.152 335.101 356.76C335.101 357.357 335.224 357.885 335.469 358.344C335.725 358.792 336.066 359.139 336.493 359.384C336.93 359.629 337.416 359.752 337.949 359.752ZM344.487 361V352.52H345.959V354.824L345.815 354.248C346.05 353.661 346.445 353.213 346.999 352.904C347.554 352.595 348.237 352.44 349.047 352.44V353.928C348.983 353.917 348.919 353.912 348.855 353.912C348.802 353.912 348.749 353.912 348.695 353.912C347.874 353.912 347.223 354.157 346.743 354.648C346.263 355.139 346.023 355.848 346.023 356.776V361H344.487Z" fill="#969696"/>
<path d="M399.868 361V349.8H401.18L406.204 358.264H405.5L410.46 349.8H411.772L411.788 361H410.252L410.236 352.216H410.604L406.188 359.64H405.452L401.004 352.216H401.404V361H399.868ZM420.189 361V359.208L420.109 358.872V355.816C420.109 355.165 419.917 354.664 419.533 354.312C419.159 353.949 418.594 353.768 417.837 353.768C417.335 353.768 416.845 353.853 416.365 354.024C415.885 354.184 415.479 354.403 415.149 354.68L414.509 353.528C414.946 353.176 415.469 352.909 416.077 352.728C416.695 352.536 417.341 352.44 418.013 352.44C419.175 352.44 420.071 352.723 420.701 353.288C421.33 353.853 421.645 354.717 421.645 355.88V361H420.189ZM417.405 361.096C416.775 361.096 416.221 360.989 415.741 360.776C415.271 360.563 414.909 360.269 414.653 359.896C414.397 359.512 414.269 359.08 414.269 358.6C414.269 358.141 414.375 357.725 414.589 357.352C414.813 356.979 415.17 356.68 415.661 356.456C416.162 356.232 416.834 356.12 417.677 356.12H420.365V357.224H417.741C416.973 357.224 416.455 357.352 416.189 357.608C415.922 357.864 415.789 358.173 415.789 358.536C415.789 358.952 415.954 359.288 416.285 359.544C416.615 359.789 417.074 359.912 417.661 359.912C418.237 359.912 418.738 359.784 419.165 359.528C419.602 359.272 419.917 358.899 420.109 358.408L420.413 359.464C420.21 359.965 419.853 360.365 419.341 360.664C418.829 360.952 418.183 361.096 417.405 361.096ZM424.699 364.2C424.294 364.2 423.899 364.131 423.515 363.992C423.131 363.864 422.8 363.672 422.523 363.416L423.179 362.264C423.392 362.467 423.627 362.621 423.883 362.728C424.139 362.835 424.411 362.888 424.699 362.888C425.072 362.888 425.382 362.792 425.627 362.6C425.872 362.408 426.102 362.067 426.315 361.576L426.843 360.408L427.003 360.216L430.331 352.52H431.835L427.723 361.848C427.478 362.445 427.2 362.915 426.891 363.256C426.592 363.597 426.262 363.837 425.899 363.976C425.536 364.125 425.136 364.2 424.699 364.2ZM426.715 361.272L422.843 352.52H424.443L427.739 360.072L426.715 361.272Z" fill="#969696"/>
<path d="M483.261 361.128C482.599 361.128 481.981 360.989 481.405 360.712C480.829 360.435 480.359 360.035 479.997 359.512L480.925 358.424C481.234 358.851 481.581 359.181 481.965 359.416C482.359 359.64 482.791 359.752 483.261 359.752C484.541 359.752 485.181 358.995 485.181 357.48V351.192H481.133V349.8H486.765V357.4C486.765 358.648 486.466 359.581 485.869 360.2C485.282 360.819 484.413 361.128 483.261 361.128ZM493.368 361.096C492.642 361.096 492.002 360.963 491.448 360.696C490.904 360.429 490.477 360.024 490.168 359.48C489.869 358.925 489.72 358.232 489.72 357.4V352.52H491.256V357.224C491.256 358.056 491.453 358.68 491.848 359.096C492.253 359.512 492.818 359.72 493.544 359.72C494.077 359.72 494.541 359.613 494.936 359.4C495.33 359.176 495.634 358.856 495.848 358.44C496.061 358.013 496.168 357.501 496.168 356.904V352.52H497.704V361H496.248V358.712L496.488 359.32C496.21 359.885 495.794 360.323 495.24 360.632C494.685 360.941 494.061 361.096 493.368 361.096ZM505.156 352.44C505.849 352.44 506.457 352.573 506.98 352.84C507.513 353.107 507.929 353.512 508.228 354.056C508.527 354.6 508.676 355.288 508.676 356.12V361H507.14V356.296C507.14 355.475 506.937 354.856 506.532 354.44C506.137 354.024 505.577 353.816 504.852 353.816C504.308 353.816 503.833 353.923 503.428 354.136C503.023 354.349 502.708 354.664 502.484 355.08C502.271 355.496 502.164 356.013 502.164 356.632V361H500.628V352.52H502.1V354.808L501.86 354.2C502.137 353.645 502.564 353.213 503.14 352.904C503.716 352.595 504.388 352.44 505.156 352.44ZM515.295 361.096C514.388 361.096 513.588 360.909 512.895 360.536C512.212 360.163 511.679 359.651 511.295 359C510.921 358.349 510.735 357.603 510.735 356.76C510.735 355.917 510.916 355.171 511.279 354.52C511.652 353.869 512.159 353.363 512.799 353C513.449 352.627 514.18 352.44 514.991 352.44C515.812 352.44 516.537 352.621 517.167 352.984C517.796 353.347 518.287 353.859 518.639 354.52C519.001 355.171 519.183 355.933 519.183 356.808C519.183 356.872 519.177 356.947 519.167 357.032C519.167 357.117 519.161 357.197 519.151 357.272H511.935V356.168H518.351L517.727 356.552C517.737 356.008 517.625 355.523 517.391 355.096C517.156 354.669 516.831 354.339 516.415 354.104C516.009 353.859 515.535 353.736 514.991 353.736C514.457 353.736 513.983 353.859 513.567 354.104C513.151 354.339 512.825 354.675 512.591 355.112C512.356 355.539 512.239 356.029 512.239 356.584V356.84C512.239 357.405 512.367 357.912 512.623 358.36C512.889 358.797 513.257 359.139 513.727 359.384C514.196 359.629 514.735 359.752 515.343 359.752C515.844 359.752 516.297 359.667 516.703 359.496C517.119 359.325 517.481 359.069 517.791 358.728L518.639 359.72C518.255 360.168 517.775 360.509 517.199 360.744C516.633 360.979 515.999 361.096 515.295 361.096Z" fill="#969696"/>
<path d="M571.401 361.128C570.74 361.128 570.121 360.989 569.545 360.712C568.969 360.435 568.5 360.035 568.137 359.512L569.065 358.424C569.375 358.851 569.721 359.181 570.105 359.416C570.5 359.64 570.932 359.752 571.401 359.752C572.681 359.752 573.321 358.995 573.321 357.48V351.192H569.273V349.8H574.905V357.4C574.905 358.648 574.607 359.581 574.009 360.2C573.423 360.819 572.553 361.128 571.401 361.128ZM581.508 361.096C580.783 361.096 580.143 360.963 579.588 360.696C579.044 360.429 578.618 360.024 578.308 359.48C578.01 358.925 577.86 358.232 577.86 357.4V352.52H579.396V357.224C579.396 358.056 579.594 358.68 579.988 359.096C580.394 359.512 580.959 359.72 581.684 359.72C582.218 359.72 582.682 359.613 583.076 359.4C583.471 359.176 583.775 358.856 583.988 358.44C584.202 358.013 584.308 357.501 584.308 356.904V352.52H585.844V361H584.388V358.712L584.628 359.32C584.351 359.885 583.935 360.323 583.38 360.632C582.826 360.941 582.202 361.096 581.508 361.096ZM588.769 361V349.128H590.305V361H588.769ZM593.605 364.2C593.2 364.2 592.805 364.131 592.421 363.992C592.037 363.864 591.707 363.672 591.429 363.416L592.085 362.264C592.299 362.467 592.533 362.621 592.789 362.728C593.045 362.835 593.317 362.888 593.605 362.888C593.979 362.888 594.288 362.792 594.533 362.6C594.779 362.408 595.008 362.067 595.221 361.576L595.749 360.408L595.909 360.216L599.237 352.52H600.741L596.629 361.848C596.384 362.445 596.107 362.915 595.797 363.256C595.499 363.597 595.168 363.837 594.805 363.976C594.443 364.125 594.043 364.2 593.605 364.2ZM595.621 361.272L591.749 352.52H593.349L596.645 360.072L595.621 361.272Z" fill="#969696"/>
<path d="M649.265 361L654.337 349.8H655.921L661.009 361H659.329L654.801 350.696H655.441L650.913 361H649.265ZM651.425 358.2L651.857 356.92H658.161L658.625 358.2H651.425ZM665.868 361.096C665.142 361.096 664.502 360.963 663.948 360.696C663.404 360.429 662.977 360.024 662.668 359.48C662.369 358.925 662.22 358.232 662.22 357.4V352.52H663.756V357.224C663.756 358.056 663.953 358.68 664.348 359.096C664.753 359.512 665.318 359.72 666.044 359.72C666.577 359.72 667.041 359.613 667.436 359.4C667.83 359.176 668.134 358.856 668.348 358.44C668.561 358.013 668.668 357.501 668.668 356.904V352.52H670.204V361H668.748V358.712L668.988 359.32C668.71 359.885 668.294 360.323 667.74 360.632C667.185 360.941 666.561 361.096 665.868 361.096ZM676.84 364.2C676.061 364.2 675.304 364.088 674.568 363.864C673.843 363.651 673.251 363.341 672.792 362.936L673.528 361.752C673.923 362.093 674.408 362.36 674.984 362.552C675.56 362.755 676.163 362.856 676.792 362.856C677.795 362.856 678.531 362.621 679 362.152C679.469 361.683 679.704 360.968 679.704 360.008V358.216L679.864 356.536L679.784 354.84V352.52H681.24V359.848C681.24 361.341 680.867 362.44 680.12 363.144C679.373 363.848 678.28 364.2 676.84 364.2ZM676.648 360.648C675.827 360.648 675.091 360.477 674.44 360.136C673.8 359.784 673.288 359.299 672.904 358.68C672.531 358.061 672.344 357.347 672.344 356.536C672.344 355.715 672.531 355 672.904 354.392C673.288 353.773 673.8 353.293 674.44 352.952C675.091 352.611 675.827 352.44 676.648 352.44C677.373 352.44 678.035 352.589 678.632 352.888C679.229 353.176 679.704 353.624 680.056 354.232C680.419 354.84 680.6 355.608 680.6 356.536C680.6 357.453 680.419 358.216 680.056 358.824C679.704 359.432 679.229 359.891 678.632 360.2C678.035 360.499 677.373 360.648 676.648 360.648ZM676.824 359.304C677.389 359.304 677.891 359.187 678.328 358.952C678.765 358.717 679.107 358.392 679.352 357.976C679.608 357.56 679.736 357.08 679.736 356.536C679.736 355.992 679.608 355.512 679.352 355.096C679.107 354.68 678.765 354.36 678.328 354.136C677.891 353.901 677.389 353.784 676.824 353.784C676.259 353.784 675.752 353.901 675.304 354.136C674.867 354.36 674.52 354.68 674.264 355.096C674.019 355.512 673.896 355.992 673.896 356.536C673.896 357.08 674.019 357.56 674.264 357.976C674.52 358.392 674.867 358.717 675.304 358.952C675.752 359.187 676.259 359.304 676.824 359.304Z" fill="#969696"/>
<path d="M736.124 361.128C735.27 361.128 734.454 361 733.676 360.744C732.897 360.477 732.284 360.136 731.836 359.72L732.428 358.472C732.854 358.845 733.398 359.155 734.06 359.4C734.721 359.645 735.409 359.768 736.124 359.768C736.774 359.768 737.302 359.693 737.708 359.544C738.113 359.395 738.412 359.192 738.604 358.936C738.796 358.669 738.892 358.371 738.892 358.04C738.892 357.656 738.764 357.347 738.508 357.112C738.262 356.877 737.937 356.691 737.532 356.552C737.137 356.403 736.7 356.275 736.22 356.168C735.74 356.061 735.254 355.939 734.764 355.8C734.284 355.651 733.841 355.464 733.436 355.24C733.041 355.016 732.721 354.717 732.476 354.344C732.23 353.96 732.108 353.469 732.108 352.872C732.108 352.296 732.257 351.768 732.556 351.288C732.865 350.797 733.334 350.408 733.964 350.12C734.604 349.821 735.414 349.672 736.396 349.672C737.046 349.672 737.692 349.757 738.332 349.928C738.972 350.099 739.526 350.344 739.996 350.664L739.468 351.944C738.988 351.624 738.481 351.395 737.948 351.256C737.414 351.107 736.897 351.032 736.396 351.032C735.766 351.032 735.249 351.112 734.844 351.272C734.438 351.432 734.14 351.645 733.948 351.912C733.766 352.179 733.676 352.477 733.676 352.808C733.676 353.203 733.798 353.517 734.044 353.752C734.3 353.987 734.625 354.173 735.02 354.312C735.425 354.451 735.868 354.579 736.348 354.696C736.828 354.803 737.308 354.925 737.788 355.064C738.278 355.203 738.721 355.384 739.116 355.608C739.521 355.832 739.846 356.131 740.092 356.504C740.337 356.877 740.46 357.357 740.46 357.944C740.46 358.509 740.305 359.037 739.996 359.528C739.686 360.008 739.206 360.397 738.556 360.696C737.916 360.984 737.105 361.128 736.124 361.128ZM746.349 361.096C745.443 361.096 744.643 360.909 743.949 360.536C743.267 360.163 742.733 359.651 742.349 359C741.976 358.349 741.789 357.603 741.789 356.76C741.789 355.917 741.971 355.171 742.333 354.52C742.707 353.869 743.213 353.363 743.853 353C744.504 352.627 745.235 352.44 746.045 352.44C746.867 352.44 747.592 352.621 748.221 352.984C748.851 353.347 749.341 353.859 749.693 354.52C750.056 355.171 750.237 355.933 750.237 356.808C750.237 356.872 750.232 356.947 750.221 357.032C750.221 357.117 750.216 357.197 750.205 357.272H742.989V356.168H749.405L748.781 356.552C748.792 356.008 748.68 355.523 748.445 355.096C748.211 354.669 747.885 354.339 747.469 354.104C747.064 353.859 746.589 353.736 746.045 353.736C745.512 353.736 745.037 353.859 744.621 354.104C744.205 354.339 743.88 354.675 743.645 355.112C743.411 355.539 743.293 356.029 743.293 356.584V356.84C743.293 357.405 743.421 357.912 743.677 358.36C743.944 358.797 744.312 359.139 744.781 359.384C745.251 359.629 745.789 359.752 746.397 359.752C746.899 359.752 747.352 359.667 747.757 359.496C748.173 359.325 748.536 359.069 748.845 358.728L749.693 359.72C749.309 360.168 748.829 360.509 748.253 360.744C747.688 360.979 747.053 361.096 746.349 361.096ZM756.866 361.096C756.162 361.096 755.517 360.936 754.93 360.616C754.354 360.285 753.89 359.8 753.538 359.16C753.197 358.52 753.026 357.72 753.026 356.76C753.026 355.8 753.191 355 753.522 354.36C753.863 353.72 754.322 353.24 754.898 352.92C755.485 352.6 756.141 352.44 756.866 352.44C757.698 352.44 758.434 352.621 759.074 352.984C759.714 353.347 760.221 353.853 760.594 354.504C760.967 355.144 761.154 355.896 761.154 356.76C761.154 357.624 760.967 358.381 760.594 359.032C760.221 359.683 759.714 360.189 759.074 360.552C758.434 360.915 757.698 361.096 756.866 361.096ZM752.37 364.104V352.52H753.842V354.808L753.746 356.776L753.906 358.744V364.104H752.37ZM756.738 359.752C757.282 359.752 757.767 359.629 758.194 359.384C758.631 359.139 758.973 358.792 759.218 358.344C759.474 357.885 759.602 357.357 759.602 356.76C759.602 356.152 759.474 355.629 759.218 355.192C758.973 354.744 758.631 354.397 758.194 354.152C757.767 353.907 757.282 353.784 756.738 353.784C756.205 353.784 755.719 353.907 755.282 354.152C754.855 354.397 754.514 354.744 754.258 355.192C754.013 355.629 753.89 356.152 753.89 356.76C753.89 357.357 754.013 357.885 754.258 358.344C754.514 358.792 754.855 359.139 755.282 359.384C755.719 359.629 756.205 359.752 756.738 359.752Z" fill="#969696"/>
<path d="M817.08 361.128C816.226 361.128 815.432 360.984 814.696 360.696C813.97 360.408 813.341 360.008 812.808 359.496C812.274 358.973 811.858 358.365 811.56 357.672C811.261 356.979 811.112 356.221 811.112 355.4C811.112 354.579 811.261 353.821 811.56 353.128C811.858 352.435 812.274 351.832 812.808 351.32C813.341 350.797 813.97 350.392 814.696 350.104C815.421 349.816 816.216 349.672 817.08 349.672C817.933 349.672 818.717 349.816 819.432 350.104C820.157 350.381 820.786 350.781 821.32 351.304C821.864 351.816 822.28 352.419 822.568 353.112C822.866 353.805 823.016 354.568 823.016 355.4C823.016 356.232 822.866 356.995 822.568 357.688C822.28 358.381 821.864 358.989 821.32 359.512C820.786 360.024 820.157 360.424 819.432 360.712C818.717 360.989 817.933 361.128 817.08 361.128ZM817.08 359.704C817.698 359.704 818.269 359.597 818.792 359.384C819.325 359.171 819.784 358.872 820.168 358.488C820.562 358.093 820.866 357.635 821.08 357.112C821.304 356.589 821.416 356.019 821.416 355.4C821.416 354.781 821.304 354.211 821.08 353.688C820.866 353.165 820.562 352.712 820.168 352.328C819.784 351.933 819.325 351.629 818.792 351.416C818.269 351.203 817.698 351.096 817.08 351.096C816.45 351.096 815.869 351.203 815.336 351.416C814.813 351.629 814.354 351.933 813.96 352.328C813.565 352.712 813.256 353.165 813.032 353.688C812.818 354.211 812.712 354.781 812.712 355.4C812.712 356.019 812.818 356.589 813.032 357.112C813.256 357.635 813.565 358.093 813.96 358.488C814.354 358.872 814.813 359.171 815.336 359.384C815.869 359.597 816.45 359.704 817.08 359.704ZM828.933 361.096C828.069 361.096 827.296 360.909 826.613 360.536C825.941 360.163 825.413 359.651 825.029 359C824.645 358.349 824.453 357.603 824.453 356.76C824.453 355.917 824.645 355.171 825.029 354.52C825.413 353.869 825.941 353.363 826.613 353C827.296 352.627 828.069 352.44 828.933 352.44C829.701 352.44 830.384 352.595 830.981 352.904C831.589 353.203 832.059 353.651 832.389 354.248L831.221 355C830.944 354.584 830.603 354.28 830.197 354.088C829.803 353.885 829.376 353.784 828.917 353.784C828.363 353.784 827.867 353.907 827.429 354.152C826.992 354.397 826.645 354.744 826.389 355.192C826.133 355.629 826.005 356.152 826.005 356.76C826.005 357.368 826.133 357.896 826.389 358.344C826.645 358.792 826.992 359.139 827.429 359.384C827.867 359.629 828.363 359.752 828.917 359.752C829.376 359.752 829.803 359.656 830.197 359.464C830.603 359.261 830.944 358.952 831.221 358.536L832.389 359.272C832.059 359.859 831.589 360.312 830.981 360.632C830.384 360.941 829.701 361.096 828.933 361.096ZM837.399 361.096C836.546 361.096 835.885 360.867 835.415 360.408C834.946 359.949 834.711 359.293 834.711 358.44V350.664H836.247V358.376C836.247 358.835 836.359 359.187 836.583 359.432C836.818 359.677 837.149 359.8 837.575 359.8C838.055 359.8 838.455 359.667 838.775 359.4L839.255 360.504C839.021 360.707 838.738 360.856 838.407 360.952C838.087 361.048 837.751 361.096 837.399 361.096ZM833.271 353.784V352.52H838.679V353.784H833.271Z" fill="#969696"/>
<path d="M889.758 361V349.8H891.07L898.478 359H897.79V349.8H899.39V361H898.078L890.67 351.8H891.358V361H889.758ZM906.151 361.096C905.297 361.096 904.54 360.909 903.879 360.536C903.217 360.163 902.695 359.651 902.311 359C901.927 358.339 901.735 357.592 901.735 356.76C901.735 355.917 901.927 355.171 902.311 354.52C902.695 353.869 903.217 353.363 903.879 353C904.54 352.627 905.297 352.44 906.151 352.44C906.993 352.44 907.745 352.627 908.407 353C909.079 353.363 909.601 353.869 909.975 354.52C910.359 355.16 910.551 355.907 910.551 356.76C910.551 357.603 910.359 358.349 909.975 359C909.601 359.651 909.079 360.163 908.407 360.536C907.745 360.909 906.993 361.096 906.151 361.096ZM906.151 359.752C906.695 359.752 907.18 359.629 907.607 359.384C908.044 359.139 908.385 358.792 908.631 358.344C908.876 357.885 908.999 357.357 908.999 356.76C908.999 356.152 908.876 355.629 908.631 355.192C908.385 354.744 908.044 354.397 907.607 354.152C907.18 353.907 906.695 353.784 906.151 353.784C905.607 353.784 905.121 353.907 904.695 354.152C904.268 354.397 903.927 354.744 903.671 355.192C903.415 355.629 903.287 356.152 903.287 356.76C903.287 357.357 903.415 357.885 903.671 358.344C903.927 358.792 904.268 359.139 904.695 359.384C905.121 359.629 905.607 359.752 906.151 359.752ZM914.664 361L910.952 352.52H912.552L915.848 360.2H915.08L918.44 352.52H919.944L916.232 361H914.664Z" fill="#969696"/>
<path d="M970.102 361V349.8H974.822C976.017 349.8 977.067 350.035 977.974 350.504C978.891 350.973 979.601 351.629 980.102 352.472C980.614 353.315 980.87 354.291 980.87 355.4C980.87 356.509 980.614 357.485 980.102 358.328C979.601 359.171 978.891 359.827 977.974 360.296C977.067 360.765 976.017 361 974.822 361H970.102ZM971.702 359.608H974.726C975.654 359.608 976.454 359.432 977.126 359.08C977.809 358.728 978.337 358.237 978.71 357.608C979.083 356.968 979.27 356.232 979.27 355.4C979.27 354.557 979.083 353.821 978.71 353.192C978.337 352.563 977.809 352.072 977.126 351.72C976.454 351.368 975.654 351.192 974.726 351.192H971.702V359.608ZM986.873 361.096C985.966 361.096 985.166 360.909 984.473 360.536C983.79 360.163 983.257 359.651 982.873 359C982.499 358.349 982.313 357.603 982.313 356.76C982.313 355.917 982.494 355.171 982.857 354.52C983.23 353.869 983.737 353.363 984.377 353C985.027 352.627 985.758 352.44 986.569 352.44C987.39 352.44 988.115 352.621 988.745 352.984C989.374 353.347 989.865 353.859 990.217 354.52C990.579 355.171 990.761 355.933 990.761 356.808C990.761 356.872 990.755 356.947 990.745 357.032C990.745 357.117 990.739 357.197 990.729 357.272H983.513V356.168H989.929L989.305 356.552C989.315 356.008 989.203 355.523 988.969 355.096C988.734 354.669 988.409 354.339 987.993 354.104C987.587 353.859 987.113 353.736 986.569 353.736C986.035 353.736 985.561 353.859 985.145 354.104C984.729 354.339 984.403 354.675 984.169 355.112C983.934 355.539 983.817 356.029 983.817 356.584V356.84C983.817 357.405 983.945 357.912 984.201 358.36C984.467 358.797 984.835 359.139 985.305 359.384C985.774 359.629 986.313 359.752 986.921 359.752C987.422 359.752 987.875 359.667 988.281 359.496C988.697 359.325 989.059 359.069 989.369 358.728L990.217 359.72C989.833 360.168 989.353 360.509 988.777 360.744C988.211 360.979 987.577 361.096 986.873 361.096ZM996.59 361.096C995.726 361.096 994.952 360.909 994.27 360.536C993.598 360.163 993.07 359.651 992.686 359C992.302 358.349 992.11 357.603 992.11 356.76C992.11 355.917 992.302 355.171 992.686 354.52C993.07 353.869 993.598 353.363 994.27 353C994.952 352.627 995.726 352.44 996.59 352.44C997.358 352.44 998.04 352.595 998.638 352.904C999.246 353.203 999.715 353.651 1000.05 354.248L998.878 355C998.6 354.584 998.259 354.28 997.854 354.088C997.459 353.885 997.032 353.784 996.574 353.784C996.019 353.784 995.523 353.907 995.086 354.152C994.648 354.397 994.302 354.744 994.046 355.192C993.79 355.629 993.662 356.152 993.662 356.76C993.662 357.368 993.79 357.896 994.046 358.344C994.302 358.792 994.648 359.139 995.086 359.384C995.523 359.629 996.019 359.752 996.574 359.752C997.032 359.752 997.459 359.656 997.854 359.464C998.259 359.261 998.6 358.952 998.878 358.536L1000.05 359.272C999.715 359.859 999.246 360.312 998.638 360.632C998.04 360.941 997.358 361.096 996.59 361.096Z" fill="#969696"/>
<path d="M477.824 185V173.8H478.8L486.528 183.528H486.016V173.8H487.184V185H486.208L478.496 175.272H479.008V185H477.824ZM494.024 185.08C493.213 185.08 492.482 184.899 491.832 184.536C491.192 184.163 490.685 183.656 490.312 183.016C489.938 182.365 489.752 181.624 489.752 180.792C489.752 179.949 489.938 179.208 490.312 178.568C490.685 177.928 491.192 177.427 491.832 177.064C492.472 176.701 493.202 176.52 494.024 176.52C494.856 176.52 495.592 176.701 496.232 177.064C496.882 177.427 497.389 177.928 497.752 178.568C498.125 179.208 498.312 179.949 498.312 180.792C498.312 181.624 498.125 182.365 497.752 183.016C497.389 183.656 496.882 184.163 496.232 184.536C495.581 184.899 494.845 185.08 494.024 185.08ZM494.024 184.072C494.632 184.072 495.17 183.939 495.64 183.672C496.109 183.395 496.477 183.011 496.744 182.52C497.021 182.019 497.16 181.443 497.16 180.792C497.16 180.131 497.021 179.555 496.744 179.064C496.477 178.573 496.109 178.195 495.64 177.928C495.17 177.651 494.637 177.512 494.04 177.512C493.442 177.512 492.909 177.651 492.44 177.928C491.97 178.195 491.597 178.573 491.32 179.064C491.042 179.555 490.904 180.131 490.904 180.792C490.904 181.443 491.042 182.019 491.32 182.52C491.597 183.011 491.97 183.395 492.44 183.672C492.909 183.939 493.437 184.072 494.024 184.072ZM504.818 185V176.6H505.906V178.888L505.794 178.488C506.029 177.848 506.424 177.363 506.978 177.032C507.533 176.691 508.221 176.52 509.042 176.52V177.624C509 177.624 508.957 177.624 508.914 177.624C508.872 177.613 508.829 177.608 508.786 177.608C507.901 177.608 507.208 177.88 506.706 178.424C506.205 178.957 505.954 179.72 505.954 180.712V185H504.818ZM514.605 185.08C513.73 185.08 512.962 184.899 512.301 184.536C511.64 184.163 511.122 183.656 510.749 183.016C510.376 182.365 510.189 181.624 510.189 180.792C510.189 179.96 510.365 179.224 510.717 178.584C511.08 177.944 511.57 177.443 512.189 177.08C512.818 176.707 513.522 176.52 514.301 176.52C515.09 176.52 515.789 176.701 516.397 177.064C517.016 177.416 517.501 177.917 517.853 178.568C518.205 179.208 518.381 179.949 518.381 180.792C518.381 180.845 518.376 180.904 518.365 180.968C518.365 181.021 518.365 181.08 518.365 181.144H511.053V180.296H517.757L517.309 180.632C517.309 180.024 517.176 179.485 516.909 179.016C516.653 178.536 516.301 178.163 515.853 177.896C515.405 177.629 514.888 177.496 514.301 177.496C513.725 177.496 513.208 177.629 512.749 177.896C512.29 178.163 511.933 178.536 511.677 179.016C511.421 179.496 511.293 180.045 511.293 180.664V180.84C511.293 181.48 511.432 182.045 511.709 182.536C511.997 183.016 512.392 183.395 512.893 183.672C513.405 183.939 513.986 184.072 514.637 184.072C515.149 184.072 515.624 183.981 516.061 183.8C516.509 183.619 516.893 183.341 517.213 182.968L517.853 183.704C517.48 184.152 517.01 184.493 516.445 184.728C515.89 184.963 515.277 185.08 514.605 185.08ZM524.181 185.08C523.349 185.08 522.603 184.899 521.941 184.536C521.291 184.163 520.779 183.656 520.405 183.016C520.032 182.365 519.845 181.624 519.845 180.792C519.845 179.949 520.032 179.208 520.405 178.568C520.779 177.928 521.291 177.427 521.941 177.064C522.603 176.701 523.349 176.52 524.181 176.52C524.896 176.52 525.541 176.659 526.117 176.936C526.693 177.213 527.147 177.629 527.477 178.184L526.629 178.76C526.341 178.333 525.984 178.019 525.557 177.816C525.131 177.613 524.667 177.512 524.165 177.512C523.568 177.512 523.029 177.651 522.549 177.928C522.069 178.195 521.691 178.573 521.413 179.064C521.136 179.555 520.997 180.131 520.997 180.792C520.997 181.453 521.136 182.029 521.413 182.52C521.691 183.011 522.069 183.395 522.549 183.672C523.029 183.939 523.568 184.072 524.165 184.072C524.667 184.072 525.131 183.971 525.557 183.768C525.984 183.565 526.341 183.256 526.629 182.84L527.477 183.416C527.147 183.96 526.693 184.376 526.117 184.664C525.541 184.941 524.896 185.08 524.181 185.08ZM532.992 185.08C532.182 185.08 531.451 184.899 530.8 184.536C530.16 184.163 529.654 183.656 529.28 183.016C528.907 182.365 528.72 181.624 528.72 180.792C528.72 179.949 528.907 179.208 529.28 178.568C529.654 177.928 530.16 177.427 530.8 177.064C531.44 176.701 532.171 176.52 532.992 176.52C533.824 176.52 534.56 176.701 535.2 177.064C535.851 177.427 536.358 177.928 536.72 178.568C537.094 179.208 537.28 179.949 537.28 180.792C537.28 181.624 537.094 182.365 536.72 183.016C536.358 183.656 535.851 184.163 535.2 184.536C534.55 184.899 533.814 185.08 532.992 185.08ZM532.992 184.072C533.6 184.072 534.139 183.939 534.608 183.672C535.078 183.395 535.446 183.011 535.712 182.52C535.99 182.019 536.128 181.443 536.128 180.792C536.128 180.131 535.99 179.555 535.712 179.064C535.446 178.573 535.078 178.195 534.608 177.928C534.139 177.651 533.606 177.512 533.008 177.512C532.411 177.512 531.878 177.651 531.408 177.928C530.939 178.195 530.566 178.573 530.288 179.064C530.011 179.555 529.872 180.131 529.872 180.792C529.872 181.443 530.011 182.019 530.288 182.52C530.566 183.011 530.939 183.395 531.408 183.672C531.878 183.939 532.406 184.072 532.992 184.072ZM539.6 185V176.6H540.688V178.888L540.576 178.488C540.81 177.848 541.205 177.363 541.76 177.032C542.314 176.691 543.002 176.52 543.824 176.52V177.624C543.781 177.624 543.738 177.624 543.696 177.624C543.653 177.613 543.61 177.608 543.568 177.608C542.682 177.608 541.989 177.88 541.488 178.424C540.986 178.957 540.736 179.72 540.736 180.712V185H539.6ZM549.162 185.08C548.362 185.08 547.642 184.899 547.002 184.536C546.373 184.173 545.877 183.672 545.514 183.032C545.152 182.381 544.97 181.635 544.97 180.792C544.97 179.939 545.152 179.192 545.514 178.552C545.877 177.912 546.373 177.416 547.002 177.064C547.642 176.701 548.362 176.52 549.162 176.52C549.898 176.52 550.554 176.685 551.13 177.016C551.717 177.347 552.181 177.832 552.522 178.472C552.874 179.101 553.05 179.875 553.05 180.792C553.05 181.699 552.88 182.472 552.538 183.112C552.197 183.752 551.733 184.243 551.146 184.584C550.57 184.915 549.909 185.08 549.162 185.08ZM549.242 184.072C549.84 184.072 550.373 183.939 550.842 183.672C551.322 183.395 551.696 183.011 551.962 182.52C552.24 182.019 552.378 181.443 552.378 180.792C552.378 180.131 552.24 179.555 551.962 179.064C551.696 178.573 551.322 178.195 550.842 177.928C550.373 177.651 549.84 177.512 549.242 177.512C548.656 177.512 548.128 177.651 547.658 177.928C547.189 178.195 546.816 178.573 546.538 179.064C546.261 179.555 546.122 180.131 546.122 180.792C546.122 181.443 546.261 182.019 546.538 182.52C546.816 183.011 547.189 183.395 547.658 183.672C548.128 183.939 548.656 184.072 549.242 184.072ZM552.41 185V182.472L552.522 180.776L552.362 179.08V173.128H553.498V185H552.41Z" fill="#CECECE"/>
</svg>
