<svg width="24" height="24" viewBox="0 0 24 24" fill="none" xmlns="http://www.w3.org/2000/svg">
<path d="M15.0469 19.1191C15.0469 20.7691 13.6969 22.1191 12.0469 22.1191C11.2269 22.1191 10.4669 21.7791 9.92687 21.2391C9.38687 20.6991 9.04688 19.9391 9.04688 19.1191" fill="white"/>
<path d="M15.0469 19.1191C15.0469 20.7691 13.6969 22.1191 12.0469 22.1191C11.2269 22.1191 10.4669 21.7791 9.92687 21.2391C9.38687 20.6991 9.04688 19.9391 9.04688 19.1191" stroke="#292D32" stroke-width="1.5" stroke-miterlimit="10"/>
<path d="M12.046 1.96973C8.73597 1.96973 6.04597 4.65973 6.04597 7.96973V10.8597C6.04597 11.4697 5.78597 12.3997 5.47597 12.9197L4.32597 14.8297C3.61597 16.0097 4.10597 17.3197 5.40597 17.7597C9.71597 19.1997 14.366 19.1997 18.676 17.7597C19.886 17.3597 20.416 15.9297 19.756 14.8297L18.606 12.9197C18.306 12.3997 18.046 11.4697 18.046 10.8597V7.96973C18.046 4.66973 15.346 1.96973 12.046 1.96973Z" fill="white" stroke="#292D32" stroke-width="1.5" stroke-miterlimit="10" stroke-linecap="round"/>
<path d="M13.8973 2.26C13.5873 2.17 13.2673 2.1 12.9373 2.06C11.9773 1.94 11.0573 2.01 10.1973 2.26C10.4873 1.52 11.2073 1 12.0473 1C12.8873 1 13.6073 1.52 13.8973 2.26Z" stroke="#292D32" stroke-width="1.5" stroke-miterlimit="10" stroke-linecap="round" stroke-linejoin="round"/>
</svg>
