<svg width="16" height="16" viewBox="0 0 16 16" fill="none" xmlns="http://www.w3.org/2000/svg">
<g id="Frame" clip-path="url(#clip0_148_858)">
<path id="Vector" d="M10.4577 15.5444C8.30368 14.4714 6.3567 13.0254 4.70701 11.2733C2.95336 9.62621 1.51606 7.67203 0.466164 5.50737L0.381954 5.31621C0.110138 4.82701 -0.0254349 4.27383 -0.0106229 3.71439C0.00418909 3.15494 0.168843 2.60971 0.466164 2.13558C0.993322 1.26316 2.43248 0 3.50027 0H3.56006H3.5828C4.00847 0.0514709 4.40162 0.253722 4.69101 0.570105L4.7929 0.673684C5.56262 1.494 6.2204 2.41257 6.74911 3.40547L6.76932 3.47621C6.81731 3.74289 6.8093 4.01663 6.7458 4.28005C6.6823 4.54347 6.56471 4.79079 6.40048 5.00632L6.31627 5.16042C6.15543 5.456 6.12511 5.58147 6.17648 5.73137C6.53117 6.64781 7.07144 7.48106 7.76341 8.17882C8.45537 8.87658 9.28408 9.42379 10.1975 9.78611C10.2456 9.8048 10.2967 9.81451 10.3483 9.81474C10.5451 9.78817 10.7322 9.7126 10.8923 9.59495L11.091 9.48211C11.3904 9.28585 11.7372 9.17386 12.0948 9.1579C12.2183 9.15871 12.3414 9.17254 12.462 9.19916C13.4094 9.67225 14.2824 10.2817 15.0531 11.008L15.2721 11.2109L15.3504 11.2884C15.6722 11.5879 15.8737 11.9945 15.9171 12.432C15.9542 13.4855 14.6792 15.0232 13.8337 15.5065C13.3799 15.834 12.8329 16.007 12.2733 16C11.6422 15.9822 11.0225 15.8267 10.4577 15.5444ZM3.49438 1.17137H3.42532C2.61449 1.49216 1.92126 2.05344 1.4388 2.77979L1.37648 2.87242C1.22257 3.21888 1.1565 3.59795 1.18411 3.97604C1.21173 4.35414 1.33218 4.71958 1.5348 5.04L1.61901 5.23537C2.64589 7.22576 4.00685 9.02508 5.64259 10.5549C7.16402 12.1569 8.95196 13.4827 10.9268 14.4733L11.0952 14.5491C11.4576 14.7176 11.8503 14.8113 12.2497 14.8244C12.592 14.8295 12.9267 14.7237 13.2038 14.5229L13.2443 14.4968C13.5565 14.2519 13.8439 13.9769 14.1024 13.6758C14.4323 13.3582 14.6593 12.949 14.7542 12.5011C14.7208 12.351 14.6402 12.2155 14.5243 12.1145L14.4594 12.0505C13.7657 11.4171 13.0173 10.8465 12.2228 10.3453C12.1901 10.3383 12.1568 10.3346 12.1234 10.3343C11.9045 10.3645 11.6968 10.4497 11.5196 10.5819L11.3234 10.6931C11.0345 10.8738 10.7039 10.9771 10.3634 10.9928C10.1617 10.9899 9.96211 10.9511 9.77395 10.8783C8.70967 10.4559 7.74426 9.81792 6.93836 9.00449C6.13247 8.19106 5.50351 7.21974 5.09101 6.15158C4.99334 5.87008 4.96737 5.56867 5.01544 5.27461C5.06352 4.98055 5.18414 4.70311 5.36638 4.46737L5.45564 4.30989C5.62406 4.00505 5.6628 3.87032 5.62995 3.71116C5.15325 2.94799 4.61354 2.22604 4.01648 1.55284L3.87416 1.408L3.8009 1.34063C3.72509 1.2692 3.63536 1.21416 3.53732 1.17895L3.49438 1.17137ZM12.0973 6.38737C11.9912 5.82746 11.7197 5.3122 11.3179 4.90811C10.9161 4.50402 10.4023 4.22965 9.84301 4.12042C9.70837 4.08829 9.58933 4.0098 9.50676 3.89871C9.42418 3.78763 9.38333 3.65102 9.39137 3.51284C9.3994 3.37465 9.4558 3.2437 9.5507 3.14293C9.64559 3.04216 9.77292 2.978 9.91037 2.96168H9.98701L10.0653 2.97179C10.8533 3.12513 11.5771 3.51133 12.1432 4.08045C12.7094 4.64958 13.0917 5.37545 13.2409 6.16421C13.2697 6.31617 13.2377 6.47337 13.1517 6.60192C13.0657 6.73046 12.9326 6.82005 12.7811 6.85137C12.7058 6.86602 12.6284 6.86565 12.5533 6.85027C12.4782 6.8349 12.4068 6.80483 12.3433 6.76178C12.2799 6.71874 12.2255 6.66358 12.1835 6.59947C12.1414 6.53536 12.1124 6.46356 12.0982 6.38821L12.0973 6.38737ZM14.8401 6.33432C14.6971 5.06536 14.1301 3.88178 13.2308 2.97516C12.3324 2.07431 11.1544 1.50566 9.89017 1.36253C9.75331 1.34157 9.6282 1.27311 9.53677 1.16915C9.44534 1.06519 9.39341 0.932366 9.39009 0.793959C9.38678 0.655551 9.43229 0.520392 9.51864 0.412176C9.60499 0.303959 9.72668 0.22959 9.86238 0.202105L9.93732 0.195368H10.0165C11.5447 0.368903 12.9684 1.0573 14.0535 2.14737C15.1408 3.24136 15.8268 4.67039 16.0005 6.20295C16.0169 6.35669 15.9722 6.51072 15.8762 6.63186C15.7801 6.75299 15.6402 6.83152 15.4868 6.85053C15.4649 6.85053 15.443 6.85053 15.4211 6.85053C15.2777 6.85124 15.139 6.79893 15.0318 6.70366C14.9245 6.60838 14.8562 6.47685 14.8401 6.33432Z" fill="white"/>
</g>
<defs>
<clipPath id="clip0_148_858">
<rect width="16" height="16" fill="white"/>
</clipPath>
</defs>
</svg>
